<?xml version="1.0" encoding="UTF-8"?>
<svg width="52px" height="20px" viewBox="0 0 52 20" version="1.1" xmlns="http://www.w3.org/2000/svg" xmlns:xlink="http://www.w3.org/1999/xlink">
    <!-- Generator: Sketch 42 (36781) - http://www.bohemiancoding.com/sketch -->
    <title>Send Button</title>
    <desc>Created with Sketch.</desc>
    <defs>
        <linearGradient x1="50%" y1="0%" x2="50%" y2="100%" id="linearGradient-1">
            <stop stop-color="#4C66BF" offset="0%"></stop>
            <stop stop-color="#3D54A7" offset="100%"></stop>
        </linearGradient>
    </defs>
    <g id="Badges" stroke="none" stroke-width="1" fill="none" fill-rule="evenodd">
        <g id="Branded-Social-Media-Badges" transform="translate(-322.000000, -333.000000)">
            <g id="Badges" transform="translate(30.000000, 213.000000)">
                <g id="Facebook-Badges" transform="translate(292.000000, 0.000000)">
                    <g id="Badges" transform="translate(0.000000, 48.000000)">
                        <g id="Send-Button" transform="translate(0.000000, 72.000000)">
                            <rect id="background" fill="url(#linearGradient-1)" x="0" y="0" width="52" height="20" rx="2"></rect>
                            <path d="M20.4941406,11.4702148 L21.4770508,11.3842773 C21.5236005,11.7781595 21.6319165,12.1013171 21.802002,12.3537598 C21.9720874,12.6062024 22.2361636,12.810302 22.5942383,12.9660645 C22.952313,13.121827 23.355141,13.199707 23.8027344,13.199707 C24.2001973,13.199707 24.5511052,13.1406256 24.8554688,13.0224609 C25.1598323,12.9042963 25.3863111,12.7422699 25.5349121,12.536377 C25.6835131,12.330484 25.7578125,12.1057955 25.7578125,11.8623047 C25.7578125,11.6152331 25.6861986,11.3994964 25.5429688,11.2150879 C25.3997389,11.0306794 25.1634131,10.8758144 24.8339844,10.7504883 C24.6227203,10.6681311 24.1554398,10.5401213 23.4321289,10.3664551 C22.708818,10.1927888 22.2021499,10.0289721 21.9121094,9.875 C21.5361309,9.67805891 21.2559417,9.43367659 21.0715332,9.1418457 C20.8871247,8.85001482 20.7949219,8.52327655 20.7949219,8.16162109 C20.7949219,7.76415817 20.9077137,7.39266123 21.1333008,7.04711914 C21.3588878,6.70157705 21.6883116,6.43929126 22.121582,6.26025391 C22.5548524,6.08121655 23.0364557,5.99169922 23.5664062,5.99169922 C24.150068,5.99169922 24.6647927,6.08569242 25.1105957,6.27368164 C25.5563987,6.46167086 25.8992501,6.73827942 26.1391602,7.10351562 C26.3790702,7.46875183 26.5079752,7.88232191 26.5258789,8.34423828 L25.5268555,8.41943359 C25.4731443,7.92170975 25.2914241,7.54573695 24.9816895,7.29150391 C24.6719548,7.03727086 24.2145213,6.91015625 23.609375,6.91015625 C22.9791635,6.91015625 22.5199396,7.02563361 22.2316895,7.2565918 C21.9434393,7.48754998 21.7993164,7.76594889 21.7993164,8.09179688 C21.7993164,8.37467589 21.9013662,8.60742096 22.1054688,8.79003906 C22.3059906,8.97265716 22.829667,9.15974839 23.6765137,9.35131836 C24.5233604,9.54288833 25.1043279,9.71028574 25.4194336,9.85351562 C25.8777692,10.0647797 26.2161447,10.3324365 26.4345703,10.6564941 C26.6529959,10.9805518 26.762207,11.353839 26.762207,11.7763672 C26.762207,12.1953146 26.6422538,12.590086 26.4023438,12.9606934 C26.1624337,13.3313007 25.817792,13.6195465 25.3684082,13.8254395 C24.9190244,14.0313324 24.4132515,14.1342773 23.8510742,14.1342773 C23.1385056,14.1342773 22.5414249,14.0304372 22.0598145,13.8227539 C21.578204,13.6150706 21.2004408,13.3026551 20.9265137,12.885498 C20.6525865,12.468341 20.5084636,11.9965847 20.4941406,11.4702148 Z M32.4667969,12.1630859 L33.4658203,12.2866211 C33.3082674,12.8702829 33.0164409,13.3232406 32.590332,13.6455078 C32.1642231,13.967775 31.6199577,14.1289062 30.9575195,14.1289062 C30.1232055,14.1289062 29.4616724,13.8719915 28.9729004,13.3581543 C28.4841284,12.8443171 28.2397461,12.1237026 28.2397461,11.1962891 C28.2397461,10.2366488 28.4868139,9.49186463 28.980957,8.96191406 C29.4751001,8.4319635 30.1160442,8.16699219 30.9038086,8.16699219 C31.6665077,8.16699219 32.2895484,8.42659246 32.7729492,8.94580078 C33.2563501,9.46500911 33.4980469,10.1954706 33.4980469,11.137207 C33.4980469,11.194499 33.4962565,11.2804356 33.4926758,11.3950195 L29.2387695,11.3950195 C29.274577,12.0216503 29.4518213,12.5014632 29.7705078,12.8344727 C30.0891943,13.1674821 30.4866513,13.3339844 30.9628906,13.3339844 C31.3173846,13.3339844 31.6199532,13.2408863 31.8706055,13.0546875 C32.1212578,12.8684887 32.3199862,12.5712911 32.4667969,12.1630859 Z M29.2924805,10.6000977 L32.4775391,10.6000977 C32.4345701,10.1202775 32.3128265,9.76041787 32.1123047,9.52050781 C31.8043604,9.14811012 31.4051131,8.96191406 30.9145508,8.96191406 C30.4705381,8.96191406 30.0972509,9.11051284 29.7946777,9.40771484 C29.4921046,9.70491685 29.3247072,10.1023738 29.2924805,10.6000977 Z M35.1796875,14 L35.1796875,8.29589844 L36.0498047,8.29589844 L36.0498047,9.10693359 C36.4687521,8.48030286 37.0738893,8.16699219 37.8652344,8.16699219 C38.2089861,8.16699219 38.5249823,8.22875915 38.8132324,8.35229492 C39.1014826,8.4758307 39.3172193,8.63785707 39.4604492,8.83837891 C39.6036791,9.03890074 39.7039385,9.27701685 39.7612305,9.55273438 C39.7970379,9.73177173 39.8149414,10.0450824 39.8149414,10.4926758 L39.8149414,14 L38.8481445,14 L38.8481445,10.5302734 C38.8481445,10.1363913 38.8105473,9.84187923 38.7353516,9.64672852 C38.6601559,9.4515778 38.526775,9.29581764 38.3352051,9.17944336 C38.1436351,9.06306908 37.9189466,9.00488281 37.6611328,9.00488281 C37.2493469,9.00488281 36.8939631,9.13557812 36.5949707,9.39697266 C36.2959783,9.65836719 36.1464844,10.1542932 36.1464844,10.8847656 L36.1464844,14 L35.1796875,14 Z M45.4980469,14 L45.4980469,13.2802734 C45.1363914,13.8460315 44.6046585,14.1289062 43.902832,14.1289062 C43.4480772,14.1289062 43.0300312,14.003582 42.6486816,13.7529297 C42.2673321,13.5022774 41.9719249,13.1522646 41.7624512,12.7028809 C41.5529775,12.2534971 41.4482422,11.7369821 41.4482422,11.1533203 C41.4482422,10.5839815 41.5431306,10.0674665 41.7329102,9.60375977 C41.9226898,9.14005302 42.2073549,8.7846692 42.5869141,8.53759766 C42.9664733,8.29052611 43.3907854,8.16699219 43.8598633,8.16699219 C44.203615,8.16699219 44.5097643,8.23950123 44.7783203,8.38452148 C45.0468763,8.52954174 45.2652986,8.71842332 45.4335938,8.95117188 L45.4335938,6.12597656 L46.3950195,6.12597656 L46.3950195,14 L45.4980469,14 Z M42.4418945,11.1533203 C42.4418945,11.8837927 42.5958643,12.4298485 42.9038086,12.7915039 C43.2117528,13.1531594 43.5751932,13.3339844 43.9941406,13.3339844 C44.4166688,13.3339844 44.7756333,13.1612159 45.0710449,12.8156738 C45.3664566,12.4701317 45.5141602,11.9428746 45.5141602,11.2338867 C45.5141602,10.4532839 45.363771,9.88037292 45.0629883,9.51513672 C44.7622055,9.14990052 44.3916038,8.96728516 43.9511719,8.96728516 C43.5214822,8.96728516 43.1625177,9.14273913 42.8742676,9.49365234 C42.5860174,9.84456556 42.4418945,10.3977827 42.4418945,11.1533203 Z" id="Send" fill="#FFFFFF"></path>
                            <path d="M12,16 L16,16 L16,4 L4,4 L4,16 L9.99999998,16 C9.88788104,14.415774 9.99999998,11.9999999 9.99999998,11.9999999 L7.99999998,11.9999999 L7.99999998,9.99999986 L9.99999998,9.99999986 L9.99999998,8.52678571 C9.99999998,7.69642442 10.5357119,6.95759156 11,6.49999998 C11.464288,6.04240841 12,6.00000001 14,6.00000001 L14,8.0000001 C14,8.0000001 12,7.50000004 12,8.52678571 L12,9.99999986 L14,9.99999986 L14,11.9999999 L12,11.9999999 L12,16 Z" id="icon-12x12" fill="#FFFFFF"></path>
                        </g>
                    </g>
                </g>
            </g>
        </g>
    </g>
</svg>