<?xml version="1.0" encoding="UTF-8"?>
<svg width="47px" height="20px" viewBox="0 0 47 20" version="1.1" xmlns="http://www.w3.org/2000/svg" xmlns:xlink="http://www.w3.org/1999/xlink">
    <!-- Generator: Sketch 42 (36781) - http://www.bohemiancoding.com/sketch -->
    <title>Facebook Like</title>
    <desc>Created with Sketch.</desc>
    <defs>
        <linearGradient x1="50%" y1="0%" x2="50%" y2="100%" id="linearGradient-1">
            <stop stop-color="#4C66BF" offset="0%"></stop>
            <stop stop-color="#3D54A7" offset="100%"></stop>
        </linearGradient>
    </defs>
    <g id="Badges" stroke="none" stroke-width="1" fill="none" fill-rule="evenodd">
        <g id="Branded-Social-Media-Badges" transform="translate(-322.000000, -293.000000)">
            <g id="Badges" transform="translate(30.000000, 213.000000)">
                <g id="Facebook-Badges" transform="translate(292.000000, 0.000000)">
                    <g id="Badges" transform="translate(0.000000, 48.000000)">
                        <g id="Like-+-Share" transform="translate(0.000000, 32.000000)">
                            <g id="Facebook-Like">
                                <rect id="background" fill="url(#linearGradient-1)" x="0" y="0" width="47" height="20" rx="2"></rect>
                                <path d="M20.8056641,14 L20.8056641,6.12597656 L21.8476562,6.12597656 L21.8476562,13.0708008 L25.7255859,13.0708008 L25.7255859,14 L20.8056641,14 Z M27.3481445,7.23779297 L27.3481445,6.12597656 L28.3149414,6.12597656 L28.3149414,7.23779297 L27.3481445,7.23779297 Z M27.3481445,14 L27.3481445,8.29589844 L28.3149414,8.29589844 L28.3149414,14 L27.3481445,14 Z M30.2919922,14 L30.2919922,6.12597656 L31.2587891,6.12597656 L31.2587891,10.6162109 L33.546875,8.29589844 L34.7983398,8.29589844 L32.6176758,10.4121094 L35.0185547,14 L33.8261719,14 L31.940918,11.0834961 L31.2587891,11.7387695 L31.2587891,14 L30.2919922,14 Z M40.1914062,12.1630859 L41.1904297,12.2866211 C41.0328768,12.8702829 40.7410503,13.3232406 40.3149414,13.6455078 C39.8888325,13.967775 39.3445671,14.1289062 38.6821289,14.1289062 C37.8478148,14.1289062 37.1862817,13.8719915 36.6975098,13.3581543 C36.2087378,12.8443171 35.9643555,12.1237026 35.9643555,11.1962891 C35.9643555,10.2366488 36.2114233,9.49186463 36.7055664,8.96191406 C37.1997095,8.4319635 37.8406536,8.16699219 38.628418,8.16699219 C39.3911171,8.16699219 40.0141577,8.42659246 40.4975586,8.94580078 C40.9809594,9.46500911 41.2226562,10.1954706 41.2226562,11.137207 C41.2226562,11.194499 41.2208659,11.2804356 41.2172852,11.3950195 L36.9633789,11.3950195 C36.9991864,12.0216503 37.1764307,12.5014632 37.4951172,12.8344727 C37.8138037,13.1674821 38.2112606,13.3339844 38.6875,13.3339844 C39.041994,13.3339844 39.3445625,13.2408863 39.5952148,13.0546875 C39.8458671,12.8684887 40.0445956,12.5712911 40.1914062,12.1630859 Z M37.0170898,10.6000977 L40.2021484,10.6000977 C40.1591795,10.1202775 40.0374359,9.76041787 39.8369141,9.52050781 C39.5289698,9.14811012 39.1297225,8.96191406 38.6391602,8.96191406 C38.1951475,8.96191406 37.8218602,9.11051284 37.5192871,9.40771484 C37.216714,9.70491685 37.0493166,10.1023738 37.0170898,10.6000977 Z" id="Like" fill="#FFFFFF"></path>
                                <path d="M12,16 L16,16 L16,4 L4,4 L4,16 L9.99999998,16 C9.88788104,14.415774 9.99999998,11.9999999 9.99999998,11.9999999 L7.99999998,11.9999999 L7.99999998,9.99999986 L9.99999998,9.99999986 L9.99999998,8.52678571 C9.99999998,7.69642442 10.5357119,6.95759156 11,6.49999998 C11.464288,6.04240841 12,6.00000001 14,6.00000001 L14,8.0000001 C14,8.0000001 12,7.50000004 12,8.52678571 L12,9.99999986 L14,9.99999986 L14,11.9999999 L12,11.9999999 L12,16 Z" id="icon-12x12" fill="#FFFFFF"></path>
                            </g>
                        </g>
                    </g>
                </g>
            </g>
        </g>
    </g>
</svg>