<?xml version="1.0" encoding="UTF-8"?>
<svg width="94px" height="20px" viewBox="0 0 94 20" version="1.1" xmlns="http://www.w3.org/2000/svg" xmlns:xlink="http://www.w3.org/1999/xlink">
    <!-- Generator: Sketch 42 (36781) - http://www.bohemiancoding.com/sketch -->
    <title>newsletter</title>
    <desc>Created with Sketch.</desc>
    <defs>
        <rect id="path-1" x="0" y="0" width="94" height="20" rx="3"></rect>
        <filter x="-50%" y="-50%" width="200%" height="200%" filterUnits="objectBoundingBox" id="filter-2">
            <feOffset dx="0" dy="3" in="SourceAlpha" result="shadowOffsetInner1"></feOffset>
            <feComposite in="shadowOffsetInner1" in2="SourceAlpha" operator="arithmetic" k2="-1" k3="1" result="shadowInnerInner1"></feComposite>
            <feColorMatrix values="0 0 0 0 1   0 0 0 0 0.999936521   0 0 0 0 1  0 0 0 1 0" type="matrix" in="shadowInnerInner1"></feColorMatrix>
        </filter>
        <mask id="mask-3" maskContentUnits="userSpaceOnUse" maskUnits="objectBoundingBox" x="0" y="0" width="94" height="20" fill="white">
            <use xlink:href="#path-1"></use>
        </mask>
    </defs>
    <g id="Badges" stroke="none" stroke-width="1" fill="none" fill-rule="evenodd">
        <g id="Branded-Social-Media-Badges" transform="translate(-107.000000, -321.000000)">
            <g id="Badges" transform="translate(30.000000, 213.000000)">
                <g id="Twitter-Badges">
                    <g id="Badges" transform="translate(0.000000, 48.000000)">
                        <g id="newsletter" transform="translate(77.000000, 60.000000)">
                            <g id="Button">
                                <g id="background">
                                    <use fill="black" fill-opacity="1" filter="url(#filter-2)" xlink:href="#path-1"></use>
                                    <use stroke="#CCCCCC" mask="url(#mask-3)" stroke-width="2" xlink:href="#path-1"></use>
                                </g>
                                <path d="M31.4941405,6.08300781 L33.2290038,6.08300781 L36.3818359,11.6098633 L36.3818359,6.08300781 L37.9233398,6.08300781 L37.9233398,14 L36.2690429,14 L33.0356444,8.37646484 L33.0356444,14 L31.4941405,14 L31.4941405,6.08300781 Z M40.826416,9.58496094 C40.6312652,9.80696726 40.5086265,10.1077455 40.458496,10.4873047 L42.8378906,10.4873047 C42.8128253,10.0826803 42.6901866,9.77563581 42.4699706,9.56616211 C42.2497547,9.35668841 41.9767268,9.25195312 41.6508788,9.25195312 C41.2963849,9.25195312 41.0215667,9.36295462 40.826416,9.58496094 Z M42.9667968,8.26367188 C43.3570982,8.44628998 43.6793606,8.73453579 43.9335937,9.12841797 C44.1627615,9.47575043 44.3113603,9.87857844 44.3793945,10.3369141 C44.4187827,10.6054701 44.4348958,10.992185 44.4277343,11.4970703 L40.4208984,11.4970703 C40.4423829,12.0843128 40.6267886,12.4960926 40.974121,12.7324219 C41.1853851,12.8792325 41.4396143,12.9526367 41.7368163,12.9526367 C42.0519221,12.9526367 42.3079417,12.8631194 42.5048827,12.684082 C42.6123052,12.5874019 42.7071935,12.4531259 42.7895507,12.28125 L44.352539,12.28125 C44.3131508,12.6285825 44.1323258,12.9812808 43.8100585,13.3393555 C43.3087539,13.9086943 42.606938,14.1933594 41.7045898,14.1933594 C40.9597944,14.1933594 40.3027372,13.9534529 39.7333984,13.4736328 C39.1640596,12.9938127 38.8793945,12.2132216 38.8793945,11.1318359 C38.8793945,10.1184845 39.1363092,9.34147406 39.6501464,8.80078125 C40.1639836,8.26008844 40.8308878,7.98974609 41.6508788,7.98974609 C42.1378604,7.98974609 42.5764954,8.08105377 42.9667968,8.26367188 Z M48.2197265,8.14550781 L49.7719726,8.14550781 L50.6635742,12.3618164 L51.5766601,8.14550781 L53.171875,8.14550781 L51.4746093,14 L49.9008789,14 L48.9824218,9.73535156 L48.0532226,14 L46.4633789,14 L44.8198242,8.14550781 L46.4633789,8.14550781 L47.3764648,12.3457031 L48.2197265,8.14550781 Z M55.2075195,12.1308594 C55.2397462,12.4029962 55.3095697,12.5963536 55.4169922,12.7109375 C55.6067717,12.9150401 55.9576797,13.0170898 56.4697265,13.0170898 C56.7705093,13.0170898 57.0095206,12.9723312 57.1867675,12.8828125 C57.3640145,12.7932938 57.4526367,12.6590178 57.4526367,12.4799805 C57.4526367,12.3081046 57.3810228,12.1774093 57.2377929,12.0878906 C57.0945631,11.9983719 56.5628301,11.8444021 55.6425781,11.6259766 C54.9801399,11.4612622 54.5128594,11.2553723 54.2407226,11.0083008 C53.9685858,10.76481 53.8325195,10.413902 53.8325195,9.95556641 C53.8325195,9.4148736 54.0446756,8.95027864 54.4689941,8.56176758 C54.8933126,8.17325652 55.4903933,7.97900391 56.2602539,7.97900391 C56.9907263,7.97900391 57.5860165,8.12491716 58.0461425,8.41674805 C58.5062685,8.70857893 58.7703447,9.21256152 58.8383789,9.92871094 L57.3076172,9.92871094 C57.2861327,9.73176985 57.2306319,9.57600969 57.1411132,9.46142578 C56.9728181,9.25374245 56.6863627,9.14990234 56.2817382,9.14990234 C55.9487288,9.14990234 55.7115078,9.2018224 55.5700683,9.30566406 C55.4286288,9.40950573 55.3579101,9.5312493 55.3579101,9.67089844 C55.3579101,9.84635504 55.4331047,9.97346966 55.5834961,10.0522461 C55.7338874,10.1346033 56.2656204,10.2760407 57.1787109,10.4765625 C57.7874379,10.6197924 58.2439763,10.8364243 58.5483398,11.1264648 C58.8491226,11.4200861 58.9995117,11.7871072 58.9995117,12.2275391 C58.9995117,12.8076201 58.7837749,13.2811668 58.3522949,13.6481934 C57.9208149,14.0152199 57.2539107,14.1987305 56.3515625,14.1987305 C55.4313105,14.1987305 54.7518739,14.0044779 54.3132324,13.6159668 C53.8745909,13.2274557 53.6552734,12.7324249 53.6552734,12.1308594 L55.2075195,12.1308594 Z M61.6958008,14 L60.165039,14 L60.165039,6.08300781 L61.6958008,6.08300781 L61.6958008,14 Z M64.6740723,9.58496094 C64.4789216,9.80696726 64.3562828,10.1077455 64.3061523,10.4873047 L66.6855469,10.4873047 C66.6604816,10.0826803 66.5378429,9.77563581 66.317627,9.56616211 C66.097411,9.35668841 65.8243831,9.25195312 65.4985352,9.25195312 C65.1440412,9.25195312 64.869223,9.36295462 64.6740723,9.58496094 Z M66.8144531,8.26367188 C67.2047546,8.44628998 67.527017,8.73453579 67.78125,9.12841797 C68.0104178,9.47575043 68.1590166,9.87857844 68.2270508,10.3369141 C68.266439,10.6054701 68.2825521,10.992185 68.2753906,11.4970703 L64.2685547,11.4970703 C64.2900392,12.0843128 64.4744449,12.4960926 64.8217773,12.7324219 C65.0330414,12.8792325 65.2872706,12.9526367 65.5844727,12.9526367 C65.8995784,12.9526367 66.155598,12.8631194 66.3525391,12.684082 C66.4599615,12.5874019 66.5548498,12.4531259 66.637207,12.28125 L68.2001953,12.28125 C68.1608071,12.6285825 67.9799821,12.9812808 67.6577148,13.3393555 C67.1564103,13.9086943 66.4545944,14.1933594 65.5522461,14.1933594 C64.8074507,14.1933594 64.1503935,13.9534529 63.5810547,13.4736328 C63.0117159,12.9938127 62.7270508,12.2132216 62.7270508,11.1318359 C62.7270508,10.1184845 62.9839655,9.34147406 63.4978027,8.80078125 C64.0116399,8.26008844 64.6785441,7.98974609 65.4985352,7.98974609 C65.9855168,7.98974609 66.4241517,8.08105377 66.8144531,8.26367188 Z M68.7050781,9.28955078 L68.7050781,8.19921875 L69.5214844,8.19921875 L69.5214844,6.56640625 L71.0361328,6.56640625 L71.0361328,8.19921875 L71.9868164,8.19921875 L71.9868164,9.28955078 L71.0361328,9.28955078 L71.0361328,12.3833008 C71.0361328,12.6232108 71.0665687,12.7727048 71.1274414,12.8317871 C71.1883141,12.8908694 71.3745102,12.9204102 71.6860352,12.9204102 C71.7325849,12.9204102 71.7818194,12.919515 71.8337403,12.9177246 C71.8856611,12.9159342 71.936686,12.9132487 71.9868164,12.909668 L71.9868164,14.0537109 L71.2617188,14.0805664 C70.5384079,14.1056316 70.0442722,13.9803074 69.7792969,13.7045898 C69.607421,13.5291332 69.5214844,13.2587909 69.5214844,12.8935547 L69.5214844,9.28955078 L68.7050781,9.28955078 Z M72.3681641,9.28955078 L72.3681641,8.19921875 L73.1845703,8.19921875 L73.1845703,6.56640625 L74.6992188,6.56640625 L74.6992188,8.19921875 L75.6499024,8.19921875 L75.6499024,9.28955078 L74.6992188,9.28955078 L74.6992188,12.3833008 C74.6992188,12.6232108 74.7296547,12.7727048 74.7905274,12.8317871 C74.8514001,12.8908694 75.0375961,12.9204102 75.3491211,12.9204102 C75.3956708,12.9204102 75.4449054,12.919515 75.4968262,12.9177246 C75.548747,12.9159342 75.5997719,12.9132487 75.6499024,12.909668 L75.6499024,14.0537109 L74.9248047,14.0805664 C74.2014938,14.1056316 73.7073581,13.9803074 73.4423828,13.7045898 C73.270507,13.5291332 73.1845703,13.2587909 73.1845703,12.8935547 L73.1845703,9.28955078 L72.3681641,9.28955078 Z M78.11792,9.58496094 C77.9227693,9.80696726 77.8001305,10.1077455 77.75,10.4873047 L80.1293946,10.4873047 C80.1043294,10.0826803 79.9816906,9.77563581 79.7614747,9.56616211 C79.5412587,9.35668841 79.2682308,9.25195312 78.9423829,9.25195312 C78.5878889,9.25195312 78.3130707,9.36295462 78.11792,9.58496094 Z M80.2583008,8.26367188 C80.6486023,8.44628998 80.9708647,8.73453579 81.2250977,9.12841797 C81.4542655,9.47575043 81.6028643,9.87857844 81.6708985,10.3369141 C81.7102867,10.6054701 81.7263998,10.992185 81.7192383,11.4970703 L77.7124024,11.4970703 C77.7338869,12.0843128 77.9182926,12.4960926 78.265625,12.7324219 C78.4768891,12.8792325 78.7311184,12.9526367 79.0283204,12.9526367 C79.3434261,12.9526367 79.5994457,12.8631194 79.7963868,12.684082 C79.9038092,12.5874019 79.9986976,12.4531259 80.0810547,12.28125 L81.644043,12.28125 C81.6046548,12.6285825 81.4238298,12.9812808 81.1015625,13.3393555 C80.600258,13.9086943 79.8984421,14.1933594 78.9960938,14.1933594 C78.2512984,14.1933594 77.5942412,13.9534529 77.0249024,13.4736328 C76.4555636,12.9938127 76.1708985,12.2132216 76.1708985,11.1318359 C76.1708985,10.1184845 76.4278132,9.34147406 76.9416504,8.80078125 C77.4554876,8.26008844 78.1223918,7.98974609 78.9423829,7.98974609 C79.4293645,7.98974609 79.8679994,8.08105377 80.2583008,8.26367188 Z M86.0026856,8.00854492 C86.0223797,8.0103353 86.0662432,8.01302082 86.1342774,8.01660156 L86.1342774,9.58496094 C86.0375972,9.5742187 85.9516606,9.56705731 85.8764649,9.56347656 C85.8012692,9.55989582 85.7403974,9.55810547 85.6938477,9.55810547 C85.0779592,9.55810547 84.6643891,9.7586243 84.4531251,10.159668 C84.3349604,10.385255 84.275879,10.7325823 84.275879,11.2016602 L84.275879,14 L82.7343751,14 L82.7343751,8.14550781 L84.1953126,8.14550781 L84.1953126,9.16601562 C84.4316419,8.77571419 84.6375317,8.50895254 84.8129883,8.36572266 C85.0994481,8.1258126 85.4718402,8.00585938 85.9301758,8.00585938 C85.9588218,8.00585938 85.9829915,8.00675455 86.0026856,8.00854492 Z" id="Newsletter" fill="#333333"></path>
                                <g id="Telegram" transform="translate(6.000000, 4.000000)" fill-rule="nonzero" fill="#000000">
                                    <g id="dasSSSS">
                                        <path d="M16.8872356,0.0053021148 L0.433006042,0.0053021148 C0.194410876,0.0053021148 0,0.199712991 0,0.438308157 L0,11.2634592 C0,11.5020544 0.194410876,11.6964653 0.433006042,11.6964653 L16.8872356,11.6964653 C17.1258308,11.6964653 17.3202417,11.5020544 17.3202417,11.2634592 L17.3202417,0.438308157 C17.3202417,0.199712991 17.1258308,0.0053021148 16.8872356,0.0053021148 L16.8872356,0.0053021148 Z M15.8480211,0.871314199 L8.66012085,8.0592145 L1.47222054,0.871314199 L15.8480211,0.871314199 L15.8480211,0.871314199 Z M0.866012085,1.47575529 L5.2402568,5.85 L0.866012085,10.2242447 L0.866012085,1.47575529 L0.866012085,1.47575529 Z M1.493429,10.8304532 L5.84469789,6.47918429 L8.35613293,8.99061934 C8.52933535,9.16382175 8.78913897,9.16382175 8.96234139,8.99061934 L11.4737764,6.47918429 L15.8250453,10.8304532 L1.493429,10.8304532 L1.493429,10.8304532 Z M16.4542296,10.2242447 L12.0799849,5.85 L16.4542296,1.47575529 L16.4542296,10.2242447 L16.4542296,10.2242447 Z" id="Shape"></path>
                                    </g>
                                </g>
                            </g>
                        </g>
                    </g>
                </g>
            </g>
        </g>
    </g>
</svg>