<?xml version="1.0" encoding="UTF-8"?>
<svg width="98px" height="20px" viewBox="0 0 98 20" version="1.1" xmlns="http://www.w3.org/2000/svg" xmlns:xlink="http://www.w3.org/1999/xlink">
    <!-- Generator: Sketch 42 (36781) - http://www.bohemiancoding.com/sketch -->
    <title>Button</title>
    <desc>Created with Sketch.</desc>
    <defs>
        <linearGradient x1="50%" y1="0%" x2="50%" y2="100%" id="linearGradient-1">
            <stop stop-color="#FFFFFF" stop-opacity="0.5" offset="0%"></stop>
            <stop stop-color="#DFDFDF" offset="100%"></stop>
        </linearGradient>
        <rect id="path-2" x="0" y="0" width="98" height="20" rx="3"></rect>
        <filter x="-50%" y="-50%" width="200%" height="200%" filterUnits="objectBoundingBox" id="filter-3">
            <feOffset dx="0" dy="3" in="SourceAlpha" result="shadowOffsetInner1"></feOffset>
            <feComposite in="shadowOffsetInner1" in2="SourceAlpha" operator="arithmetic" k2="-1" k3="1" result="shadowInnerInner1"></feComposite>
            <feColorMatrix values="0 0 0 0 1   0 0 0 0 0.999936521   0 0 0 0 1  0 0 0 1 0" type="matrix" in="shadowInnerInner1"></feColorMatrix>
        </filter>
        <mask id="mask-4" maskContentUnits="userSpaceOnUse" maskUnits="objectBoundingBox" x="0" y="0" width="98" height="20" fill="white">
            <use xlink:href="#path-2"></use>
        </mask>
        <linearGradient x1="64.6551667%" y1="15.8046667%" x2="39.6551667%" y2="74.1379167%" id="linearGradient-5">
            <stop stop-color="#37AEE2" offset="0%"></stop>
            <stop stop-color="#1E96C8" offset="100%"></stop>
        </linearGradient>
        <linearGradient x1="61.3441623%" y1="47.1504622%" x2="80.4986502%" y2="83.7098705%" id="linearGradient-6">
            <stop stop-color="#EFF7FC" offset="0%"></stop>
            <stop stop-color="#FFFFFF" offset="100%"></stop>
        </linearGradient>
    </defs>
    <g id="Badges" stroke="none" stroke-width="1" fill="none" fill-rule="evenodd">
        <g id="Branded-Social-Media-Badges" transform="translate(-106.000000, -321.000000)">
            <g id="Badges" transform="translate(30.000000, 213.000000)">
                <g id="Twitter-Badges">
                    <g id="Badges" transform="translate(0.000000, 48.000000)">
                        <g id="Default-Tweet-w/count-1" transform="translate(76.000000, 60.000000)">
                            <g id="Button">
                                <g id="background">
                                    <use fill="url(#linearGradient-1)" fill-rule="evenodd" xlink:href="#path-2"></use>
                                    <use fill="black" fill-opacity="1" filter="url(#filter-3)" xlink:href="#path-2"></use>
                                    <use stroke="#CCCCCC" mask="url(#mask-4)" stroke-width="2" xlink:href="#path-2"></use>
                                </g>
                                <path d="M20.4213866,10.9975586 L20.4213866,11.1801758 C20.4357096,11.7924835 20.5028476,12.2230619 20.6228026,12.4719238 C20.7427577,12.7207857 20.9996724,12.8452148 21.3935546,12.8452148 C21.783856,12.8452148 22.0416659,12.7091485 22.1669921,12.4370117 C22.2421878,12.2758781 22.279785,12.0037454 22.279785,11.6206055 L22.279785,6.08300781 L23.9340819,6.08300781 L23.9340819,11.59375 C23.9340819,12.2669304 23.8177094,12.8004538 23.5849608,13.1943359 C23.1910787,13.8603549 22.480311,14.1933594 21.4526366,14.1933594 C20.4249622,14.1933594 19.7356787,13.9239122 19.3847655,13.3850098 C19.0338523,12.8461073 18.8583983,12.11117 18.8583983,11.1801758 L18.8583983,10.9975586 L20.4213866,10.9975586 Z M29.1064452,12.4423828 C29.3463553,12.1236963 29.4663085,11.6707386 29.4663085,11.0834961 C29.4663085,10.4962536 29.3463553,10.044191 29.1064452,9.72729492 C28.8665352,9.41039881 28.5227886,9.25195312 28.0751952,9.25195312 C27.6276018,9.25195312 27.2829601,9.41039881 27.0412597,9.72729492 C26.7995592,10.044191 26.6787108,10.4962536 26.6787108,11.0834961 C26.6787108,11.6707386 26.7995592,12.1236963 27.0412597,12.4423828 C27.2829601,12.7610693 27.6276018,12.9204102 28.0751952,12.9204102 C28.5227886,12.9204102 28.8665352,12.7610693 29.1064452,12.4423828 Z M30.3310546,13.2883301 C29.8369115,13.8988475 29.0867562,14.2041016 28.0805663,14.2041016 C27.0743764,14.2041016 26.3242211,13.8988475 25.830078,13.2883301 C25.3359349,12.6778127 25.0888671,11.9428754 25.0888671,11.0834961 C25.0888671,10.2384398 25.3359349,9.50618799 25.830078,8.88671875 C26.3242211,8.26724951 27.0743764,7.95751953 28.0805663,7.95751953 C29.0867562,7.95751953 29.8369115,8.26724951 30.3310546,8.88671875 C30.8251977,9.50618799 31.0722655,10.2384398 31.0722655,11.0834961 C31.0722655,11.9428754 30.8251977,12.6778127 30.3310546,13.2883301 Z M33.7416991,7.44726562 L32.1894531,7.44726562 L32.1894531,6.03466797 L33.7416991,6.03466797 L33.7416991,7.44726562 Z M32.1894531,8.14550781 L33.7416991,8.14550781 L33.7416991,14 L32.1894531,14 L32.1894531,8.14550781 Z M39.9533691,8.48120117 C40.3382994,8.79809729 40.5307617,9.32356404 40.5307617,10.0576172 L40.5307617,14 L38.9624023,14 L38.9624023,10.4389648 C38.9624023,10.1310206 38.9212243,9.89469483 38.8388671,9.72998047 C38.6884758,9.42919771 38.4020203,9.27880859 37.9794921,9.27880859 C37.4602838,9.27880859 37.1040048,9.49902124 36.9106445,9.93945312 C36.8103836,10.1722017 36.7602538,10.4693992 36.7602538,10.8310547 L36.7602538,14 L35.2348632,14 L35.2348632,8.15625 L36.711914,8.15625 L36.711914,9.01025391 C36.9088551,8.70947115 37.0950511,8.4928392 37.2705078,8.36035156 C37.5856135,8.12402226 37.9848608,8.00585938 38.4682617,8.00585938 C39.0734079,8.00585938 39.5684388,8.16430506 39.9533691,8.48120117 Z M50.8754883,6.08300781 L50.8754883,7.48486328 L48.5068359,7.48486328 L48.5068359,14 L46.8417969,14 L46.8417969,7.48486328 L44.4624023,7.48486328 L44.4624023,6.08300781 L50.8754883,6.08300781 Z M52.3928223,9.58496094 C52.1976715,9.80696726 52.0750328,10.1077455 52.0249023,10.4873047 L54.4042969,10.4873047 C54.3792316,10.0826803 54.2565929,9.77563581 54.0363769,9.56616211 C53.816161,9.35668841 53.5431331,9.25195312 53.2172851,9.25195312 C52.8627912,9.25195312 52.587973,9.36295462 52.3928223,9.58496094 Z M54.5332031,8.26367188 C54.9235045,8.44628998 55.2457669,8.73453579 55.5,9.12841797 C55.7291678,9.47575043 55.8777666,9.87857844 55.9458008,10.3369141 C55.985189,10.6054701 56.0013021,10.992185 55.9941406,11.4970703 L51.9873047,11.4970703 C52.0087892,12.0843128 52.1931949,12.4960926 52.5405273,12.7324219 C52.7517914,12.8792325 53.0060206,12.9526367 53.3032226,12.9526367 C53.6183284,12.9526367 53.874348,12.8631194 54.0712891,12.684082 C54.1787115,12.5874019 54.2735998,12.4531259 54.355957,12.28125 L55.9189453,12.28125 C55.8795571,12.6285825 55.6987321,12.9812808 55.3764648,13.3393555 C54.8751602,13.9086943 54.1733443,14.1933594 53.2709961,14.1933594 C52.5262007,14.1933594 51.8691435,13.9534529 51.2998047,13.4736328 C50.7304659,12.9938127 50.4458008,12.2132216 50.4458008,11.1318359 C50.4458008,10.1184845 50.7027155,9.34147406 51.2165527,8.80078125 C51.7303899,8.26008844 52.3972941,7.98974609 53.2172851,7.98974609 C53.7042667,7.98974609 54.1429017,8.08105377 54.5332031,8.26367188 Z M58.5883789,14 L57.0576172,14 L57.0576172,6.08300781 L58.5883789,6.08300781 L58.5883789,14 Z M61.5666504,9.58496094 C61.3714997,9.80696726 61.248861,10.1077455 61.1987305,10.4873047 L63.578125,10.4873047 C63.5530598,10.0826803 63.430421,9.77563581 63.2102051,9.56616211 C62.9899892,9.35668841 62.7169613,9.25195312 62.3911133,9.25195312 C62.0366193,9.25195312 61.7618011,9.36295462 61.5666504,9.58496094 Z M63.7070313,8.26367188 C64.0973327,8.44628998 64.4195951,8.73453579 64.6738281,9.12841797 C64.902996,9.47575043 65.0515947,9.87857844 65.1196289,10.3369141 C65.1590171,10.6054701 65.1751303,10.992185 65.1679688,11.4970703 L61.1611328,11.4970703 C61.1826173,12.0843128 61.367023,12.4960926 61.7143555,12.7324219 C61.9256196,12.8792325 62.1798488,12.9526367 62.4770508,12.9526367 C62.7921565,12.9526367 63.0481761,12.8631194 63.2451172,12.684082 C63.3525396,12.5874019 63.447428,12.4531259 63.5297852,12.28125 L65.0927735,12.28125 C65.0533852,12.6285825 64.8725602,12.9812808 64.550293,13.3393555 C64.0489884,13.9086943 63.3471725,14.1933594 62.4448242,14.1933594 C61.7000289,14.1933594 61.0429716,13.9534529 60.4736328,13.4736328 C59.9042941,12.9938127 59.6196289,12.2132216 59.6196289,11.1318359 C59.6196289,10.1184845 59.8765437,9.34147406 60.3903809,8.80078125 C60.9042181,8.26008844 61.5711222,7.98974609 62.3911133,7.98974609 C62.8780949,7.98974609 63.3167298,8.08105377 63.7070313,8.26367188 Z M69.6206055,12.3376465 C69.8676771,12.0673001 69.991211,11.6367217 69.991211,11.0458984 C69.991211,10.4908826 69.8739433,10.0683608 69.6394043,9.77832031 C69.4048654,9.4882798 69.0906596,9.34326172 68.6967774,9.34326172 C68.1596653,9.34326172 67.7890636,9.5957006 67.584961,10.1005859 C67.4775386,10.369142 67.4238282,10.7003561 67.4238282,11.0942383 C67.4238282,11.4344093 67.4811193,11.7369778 67.5957032,12.0019531 C67.8033865,12.4960962 68.1757786,12.7431641 68.7128907,12.7431641 C69.0709654,12.7431641 69.373534,12.6079929 69.6206055,12.3376465 Z M69.0996094,8.14013672 C69.4720071,8.29410884 69.7727854,8.57698362 70.0019532,8.98876953 L70.0019532,8.14550781 L71.4897461,8.14550781 L71.4897461,13.6992188 C71.4897461,14.4547564 71.3626315,15.0240866 71.1083985,15.4072266 C70.6715473,16.066084 69.8336651,16.3955078 68.5947266,16.3955078 C67.8463505,16.3955078 67.2358422,16.2486994 66.7631836,15.9550781 C66.290525,15.6614569 66.0291344,15.2228219 65.9790039,14.6391602 L67.644043,14.6391602 C67.687012,14.8181975 67.7568355,14.9471025 67.8535157,15.0258789 C68.01823,15.165528 68.2957338,15.2353516 68.6860352,15.2353516 C69.2374702,15.2353516 69.6062817,15.0509459 69.7924805,14.6821289 C69.9142259,14.4457996 69.9750977,14.0483426 69.9750977,13.4897461 L69.9750977,13.1137695 C69.8282871,13.3644218 69.6707366,13.5524082 69.5024414,13.6777344 C69.1980779,13.9104829 68.8024113,14.0268555 68.3154297,14.0268555 C67.5634728,14.0268555 66.9628115,13.7627793 66.5134278,13.2346191 C66.064044,12.7064589 65.8393555,11.9912154 65.8393555,11.0888672 C65.8393555,10.2187456 66.0559875,9.48738903 66.4892579,8.89477539 C66.9225282,8.30216175 67.5366172,8.00585938 68.331543,8.00585938 C68.6251643,8.00585938 68.8811838,8.05061804 69.0996094,8.14013672 Z M76.1706544,8.00854492 C76.1903485,8.0103353 76.234212,8.01302082 76.3022462,8.01660156 L76.3022462,9.58496094 C76.205566,9.5742187 76.1196293,9.56705731 76.0444337,9.56347656 C75.969238,9.55989582 75.9083662,9.55810547 75.8618165,9.55810547 C75.245928,9.55810547 74.8323579,9.7586243 74.6210938,10.159668 C74.5029292,10.385255 74.4438477,10.7325823 74.4438477,11.2016602 L74.4438477,14 L72.9023438,14 L72.9023438,8.14550781 L74.3632813,8.14550781 L74.3632813,9.16601562 C74.5996106,8.77571419 74.8055005,8.50895254 74.9809571,8.36572266 C75.2674169,8.1258126 75.639809,8.00585938 76.0981446,8.00585938 C76.1267906,8.00585938 76.1509602,8.00675455 76.1706544,8.00854492 Z M80.4272462,11.1533203 C80.330566,11.214193 80.2329921,11.2634275 80.1345216,11.3010254 C80.036051,11.3386232 79.9008798,11.373535 79.729004,11.4057617 L79.385254,11.4702148 C79.0629867,11.5275068 78.832032,11.5973303 78.6923829,11.6796875 C78.4560536,11.8193366 78.3378907,12.0359686 78.3378907,12.3295898 C78.3378907,12.5909844 78.4103997,12.779866 78.55542,12.8962402 C78.7004403,13.0126145 78.8767894,13.0708008 79.0844727,13.0708008 C79.4139015,13.0708008 79.7173652,12.9741221 79.9948731,12.7807617 C80.272381,12.5874014 80.4165039,12.2347031 80.4272462,11.7226562 L80.4272462,11.1533203 Z M79.4980469,10.4389648 C79.780926,10.4031574 79.9832351,10.3583987 80.1049805,10.3046875 C80.3234061,10.2115881 80.4326173,10.06657 80.4326173,9.86962891 C80.4326173,9.62971885 80.3493661,9.46411178 80.1828614,9.37280273 C80.0163567,9.28149368 79.7719743,9.23583984 79.4497071,9.23583984 C79.0880517,9.23583984 78.8320321,9.32535718 78.6816407,9.50439453 C78.5742183,9.63688217 78.5026044,9.81591684 78.4667969,10.0415039 L76.9897462,10.0415039 C77.0219729,9.52945708 77.1652006,9.10872561 77.4194337,8.77929688 C77.8240581,8.2636693 78.5187126,8.00585938 79.503418,8.00585938 C80.1443718,8.00585938 80.713702,8.13297399 81.2114259,8.38720703 C81.7091497,8.64144007 81.9580079,9.12125298 81.9580079,9.82666016 L81.9580079,12.512207 C81.9580079,12.6984059 81.9615886,12.9239896 81.9687501,13.1889648 C81.9794923,13.3894867 82.0099282,13.525553 82.0600587,13.597168 C82.1101891,13.6687829 82.1853837,13.7278644 82.2856446,13.7744141 L82.2856446,14 L80.6206055,14 C80.5740558,13.8818353 80.5418296,13.7708339 80.5239259,13.6669922 C80.5060221,13.5631505 80.4916993,13.4449876 80.4809571,13.3125 C80.269693,13.5416678 80.0262059,13.7368156 79.7504884,13.8979492 C79.4210596,14.0877288 79.0486675,14.1826172 78.6333009,14.1826172 C78.1033503,14.1826172 77.6656105,14.0313329 77.3200684,13.7287598 C76.9745263,13.4261866 76.8017579,12.9973986 76.8017579,12.4423828 C76.8017579,11.7226527 77.0792616,11.2016618 77.6342774,10.8793945 C77.9386409,10.7039379 78.3862276,10.5786137 78.9770509,10.503418 L79.4980469,10.4389648 Z M90.6215821,8.16699219 C90.8722344,8.26725311 91.0996084,8.44270708 91.303711,8.69335938 C91.4684254,8.89746196 91.5794269,9.14811049 91.6367188,9.4453125 C91.6725263,9.64225359 91.6904298,9.9304994 91.6904298,10.3100586 L91.6796876,14 L90.1113282,14 L90.1113282,10.2724609 C90.1113282,10.0504546 90.0755213,9.86783926 90.0039063,9.72460938 C89.867838,9.4524726 89.6171894,9.31640625 89.2519532,9.31640625 C88.8294251,9.31640625 88.5375986,9.49186022 88.3764649,9.84277344 C88.2941078,10.0289723 88.2529298,10.2527656 88.2529298,10.5141602 L88.2529298,14 L86.7114259,14 L86.7114259,10.5141602 C86.7114259,10.1668277 86.6756189,9.91438881 86.604004,9.75683594 C86.4750971,9.47395692 86.2226582,9.33251953 85.8466798,9.33251953 C85.4098286,9.33251953 85.1162118,9.47395692 84.9658204,9.75683594 C84.8834632,9.91796956 84.8422852,10.157876 84.8422852,10.4765625 L84.8422852,14 L83.2900392,14 L83.2900392,8.15625 L84.7778321,8.15625 L84.7778321,9.01025391 C84.9676117,8.70589041 85.1466464,8.48925846 85.3149415,8.36035156 C85.6121435,8.13118375 85.997068,8.01660156 86.4697267,8.01660156 C86.91732,8.01660156 87.2789701,8.11507063 87.5546876,8.31201172 C87.7766939,8.49462982 87.9449865,8.72916523 88.0595704,9.015625 C88.2600922,8.67187328 88.5089504,8.4194344 88.8061524,8.25830078 C89.1212582,8.09716716 89.4721661,8.01660156 89.8588868,8.01660156 C90.1167006,8.01660156 90.3709298,8.06673127 90.6215821,8.16699219 Z" id="Tweet" fill="#333333"></path>
                                <g id="Telegram" transform="translate(3.000000, 4.000000)" fill-rule="nonzero">
                                    <g id="svg2">
                                        <path d="M13,6.5 C13,10.09125 10.09125,13 6.5,13 C2.90875,13 0,10.09125 0,6.5 C0,2.90875 2.90875,0 6.5,0 C10.09125,0 13,2.90875 13,6.5 Z" id="path2995-1-0" fill="url(#linearGradient-5)"></path>
                                        <path d="M5.30833333,9.47916667 C5.09708333,9.47916667 5.135,9.39791667 5.05916667,9.1975 L4.44166667,7.16083333 L8.27666667,4.76666667 L8.72625,4.88583333 L8.3525,5.90416667 L5.30833333,9.47916667 Z" id="path2993" fill="#C8DAEA"></path>
                                        <path d="M5.30833333,9.47916667 C5.47083333,9.47916667 5.54125,9.40333333 5.63333333,9.31666667 C5.77416667,9.18125 7.58333333,7.42083333 7.58333333,7.42083333 L6.47291667,7.15 L5.44375,7.8 L5.30833333,9.425 L5.30833333,9.47916667 Z" id="path2989" fill="#A9C9DD"></path>
                                        <path d="M5.41666667,7.82166667 L8.03833333,9.75541667 C8.33625,9.91791667 8.55291667,9.83666667 8.62875,9.47916667 L9.69583333,4.4525 C9.80416667,4.01375 9.52791667,3.81875 9.24083333,3.94875 L2.97916667,6.36458333 C2.55125,6.53791667 2.55666667,6.77625 2.90333333,6.87916667 L4.51208333,7.38291667 L8.23333333,5.0375 C8.40666667,4.92916667 8.56916667,4.98875 8.43916667,5.10791667 L5.41666667,7.82166667 Z" id="path2991" fill="url(#linearGradient-6)"></path>
                                    </g>
                                </g>
                            </g>
                        </g>
                    </g>
                </g>
            </g>
        </g>
    </g>
</svg>