<?xml version="1.0" encoding="UTF-8"?>
<svg width="56px" height="20px" viewBox="0 0 56 20" version="1.1" xmlns="http://www.w3.org/2000/svg" xmlns:xlink="http://www.w3.org/1999/xlink">
    <!-- Generator: Sketch 42 (36781) - http://www.bohemiancoding.com/sketch -->
    <title>Button</title>
    <desc>Created with Sketch.</desc>
    <defs>
        <linearGradient x1="50%" y1="0%" x2="50%" y2="100%" id="linearGradient-1">
            <stop stop-color="#FFFFFF" stop-opacity="0.5" offset="0%"></stop>
            <stop stop-color="#DFDFDF" offset="100%"></stop>
        </linearGradient>
        <rect id="path-2" x="0" y="0" width="56" height="20" rx="3"></rect>
        <filter x="-50%" y="-50%" width="200%" height="200%" filterUnits="objectBoundingBox" id="filter-3">
            <feOffset dx="0" dy="3" in="SourceAlpha" result="shadowOffsetInner1"></feOffset>
            <feComposite in="shadowOffsetInner1" in2="SourceAlpha" operator="arithmetic" k2="-1" k3="1" result="shadowInnerInner1"></feComposite>
            <feColorMatrix values="0 0 0 0 1   0 0 0 0 0.999936521   0 0 0 0 1  0 0 0 1 0" type="matrix" in="shadowInnerInner1"></feColorMatrix>
        </filter>
        <mask id="mask-4" maskContentUnits="userSpaceOnUse" maskUnits="objectBoundingBox" x="0" y="0" width="56" height="20" fill="white">
            <use xlink:href="#path-2"></use>
        </mask>
    </defs>
    <g id="Badges" stroke="none" stroke-width="1" fill="none" fill-rule="evenodd">
        <g id="Branded-Social-Media-Badges" transform="translate(-30.000000, -342.000000)">
            <g id="Badges" transform="translate(29.000000, 213.000000)">
                <g id="Twitter-Badges">
                    <g id="Badges" transform="translate(0.000000, 48.000000)">
                        <g id="Default-Tweet-w/count-2" transform="translate(0.000000, 39.000000)">
                            <g id="Button" transform="translate(1.000000, 42.000000)">
                                <g id="background">
                                    <use fill="url(#linearGradient-1)" fill-rule="evenodd" xlink:href="#path-2"></use>
                                    <use fill="black" fill-opacity="1" filter="url(#filter-3)" xlink:href="#path-2"></use>
                                    <use stroke="#CCCCCC" mask="url(#mask-4)" stroke-width="2" xlink:href="#path-2"></use>
                                </g>
                                <path d="M26.9089355,6.08300781 L26.9089355,7.48486328 L24.5402832,7.48486328 L24.5402832,14 L22.8752441,14 L22.8752441,7.48486328 L20.4958496,7.48486328 L20.4958496,6.08300781 L26.9089355,6.08300781 Z M29.7019043,8.14550781 L31.2541504,8.14550781 L32.1457519,12.3618164 L33.0588379,8.14550781 L34.6540527,8.14550781 L32.9567871,14 L31.3830566,14 L30.4645996,9.73535156 L29.5354004,14 L27.9455566,14 L26.3020019,8.14550781 L27.9455566,8.14550781 L28.8586426,12.3457031 L29.7019043,8.14550781 Z M36.9824219,9.58496094 C36.7872712,9.80696726 36.6646324,10.1077455 36.6145019,10.4873047 L38.9938965,10.4873047 C38.9688312,10.0826803 38.8461925,9.77563581 38.6259766,9.56616211 C38.4057606,9.35668841 38.1327327,9.25195312 37.8068848,9.25195312 C37.4523908,9.25195312 37.1775726,9.36295462 36.9824219,9.58496094 Z M39.1228027,8.26367188 C39.5131042,8.44628998 39.8353666,8.73453579 40.0895996,9.12841797 C40.3187674,9.47575043 40.4673662,9.87857844 40.5354004,10.3369141 C40.5747886,10.6054701 40.5909017,10.992185 40.5837402,11.4970703 L36.5769043,11.4970703 C36.5983888,12.0843128 36.7827945,12.4960926 37.1301269,12.7324219 C37.341391,12.8792325 37.5956203,12.9526367 37.8928223,12.9526367 C38.207928,12.9526367 38.4639476,12.8631194 38.6608887,12.684082 C38.7683111,12.5874019 38.8631994,12.4531259 38.9455566,12.28125 L40.5085449,12.28125 C40.4691567,12.6285825 40.2883317,12.9812808 39.9660644,13.3393555 C39.4647599,13.9086943 38.762944,14.1933594 37.8605957,14.1933594 C37.1158003,14.1933594 36.4587431,13.9534529 35.8894043,13.4736328 C35.3200655,12.9938127 35.0354004,12.2132216 35.0354004,11.1318359 C35.0354004,10.1184845 35.2923151,9.34147406 35.8061523,8.80078125 C36.3199895,8.26008844 36.9868937,7.98974609 37.8068848,7.98974609 C38.2938664,7.98974609 38.7325013,8.08105377 39.1228027,8.26367188 Z M43.1000977,9.58496094 C42.9049469,9.80696726 42.7823082,10.1077455 42.7321777,10.4873047 L45.1115723,10.4873047 C45.086507,10.0826803 44.9638683,9.77563581 44.7436524,9.56616211 C44.5234364,9.35668841 44.2504085,9.25195312 43.9245606,9.25195312 C43.5700666,9.25195312 43.2952484,9.36295462 43.1000977,9.58496094 Z M45.2404785,8.26367188 C45.63078,8.44628998 45.9530424,8.73453579 46.2072754,9.12841797 C46.4364432,9.47575043 46.585042,9.87857844 46.6530762,10.3369141 C46.6924644,10.6054701 46.7085775,10.992185 46.701416,11.4970703 L42.6945801,11.4970703 C42.7160646,12.0843128 42.9004703,12.4960926 43.2478027,12.7324219 C43.4590668,12.8792325 43.713296,12.9526367 44.0104981,12.9526367 C44.3256038,12.9526367 44.5816234,12.8631194 44.7785645,12.684082 C44.8859869,12.5874019 44.9808752,12.4531259 45.0632324,12.28125 L46.6262207,12.28125 C46.5868325,12.6285825 46.4060075,12.9812808 46.0837402,13.3393555 C45.5824357,13.9086943 44.8806198,14.1933594 43.9782715,14.1933594 C43.2334761,14.1933594 42.5764189,13.9534529 42.0070801,13.4736328 C41.4377413,12.9938127 41.1530762,12.2132216 41.1530762,11.1318359 C41.1530762,10.1184845 41.4099909,9.34147406 41.9238281,8.80078125 C42.4376653,8.26008844 43.1045695,7.98974609 43.9245606,7.98974609 C44.4115422,7.98974609 44.8501771,8.08105377 45.2404785,8.26367188 Z M47.1311035,9.28955078 L47.1311035,8.19921875 L47.9475098,8.19921875 L47.9475098,6.56640625 L49.4621582,6.56640625 L49.4621582,8.19921875 L50.4128418,8.19921875 L50.4128418,9.28955078 L49.4621582,9.28955078 L49.4621582,12.3833008 C49.4621582,12.6232108 49.4925941,12.7727048 49.5534668,12.8317871 C49.6143395,12.8908694 49.8005356,12.9204102 50.1120606,12.9204102 C50.1586103,12.9204102 50.2078448,12.919515 50.2597656,12.9177246 C50.3116865,12.9159342 50.3627114,12.9132487 50.4128418,12.909668 L50.4128418,14.0537109 L49.6877442,14.0805664 C48.9644333,14.1056316 48.4702976,13.9803074 48.2053223,13.7045898 C48.0334464,13.5291332 47.9475098,13.2587909 47.9475098,12.8935547 L47.9475098,9.28955078 L47.1311035,9.28955078 Z" id="Tweet" fill="#333333"></path>
                                <path d="M16.35038,7.20337466 C16.94328,6.85970926 17.39877,6.31551597 17.61325,5.66703194 C17.05822,5.98531835 16.44355,6.21636871 15.78926,6.34089496 C15.26538,5.80116838 14.5189,5.464 13.69276,5.464 C12.10656,5.464 10.82045,6.70729995 10.82045,8.24086789 C10.82045,8.45851814 10.84586,8.67048349 10.89486,8.87371846 C8.50772,8.75792258 6.39127,7.65234597 4.97468,5.97225663 C4.72744,6.38238116 4.58576,6.85943855 4.58576,7.36837195 C4.58576,8.3318262 5.09284,9.1817856 5.86354,9.67975528 C5.39272,9.66534001 4.94983,9.54040769 4.56259,9.3324353 C4.56231,9.34400812 4.56231,9.35558094 4.56231,9.36735679 C4.56231,10.7127818 5.55239,11.8351424 6.86636,12.0902859 C6.62535,12.1537672 6.3716,12.1877412 6.10966,12.1877412 C5.92458,12.1877412 5.74461,12.1702805 5.56926,12.137863 C5.93473,13.2410709 6.99544,14.0439946 8.25236,14.0663281 C7.26935,14.8111846 6.03091,15.2551478 4.68516,15.2551478 C4.45332,15.2551478 4.2247,15.2419507 4,15.216301 C5.27113,16.0042003 6.78089,16.464 8.40293,16.464 C13.68604,16.464 16.57515,12.2325436 16.57515,8.56287656 C16.57515,8.44247861 16.57228,8.32275744 16.56675,8.20364537 C17.12801,7.81206443 17.61493,7.32302815 18,6.76611153 C17.48494,6.98701029 16.93131,7.13630644 16.35038,7.20337466 Z" id="icon" fill="#1DADEB"></path>
                            </g>
                        </g>
                    </g>
                </g>
            </g>
        </g>
    </g>
</svg>