<?xml version="1.0" encoding="UTF-8"?>
<svg width="63px" height="20px" viewBox="0 0 63 20" version="1.1" xmlns="http://www.w3.org/2000/svg" xmlns:xlink="http://www.w3.org/1999/xlink">
    <!-- Generator: Sketch 42 (36781) - http://www.bohemiancoding.com/sketch -->
    <title>Default Follow Button</title>
    <desc>Created with Sketch.</desc>
    <defs>
        <linearGradient x1="50%" y1="0%" x2="50%" y2="100%" id="linearGradient-1">
            <stop stop-color="#FFFFFF" stop-opacity="0.5" offset="0%"></stop>
            <stop stop-color="#DFDFDF" offset="100%"></stop>
        </linearGradient>
        <rect id="path-2" x="0" y="0" width="63" height="20" rx="3"></rect>
        <filter x="-50%" y="-50%" width="200%" height="200%" filterUnits="objectBoundingBox" id="filter-3">
            <feOffset dx="0" dy="3" in="SourceAlpha" result="shadowOffsetInner1"></feOffset>
            <feComposite in="shadowOffsetInner1" in2="SourceAlpha" operator="arithmetic" k2="-1" k3="1" result="shadowInnerInner1"></feComposite>
            <feColorMatrix values="0 0 0 0 1   0 0 0 0 0.999936521   0 0 0 0 1  0 0 0 1 0" type="matrix" in="shadowInnerInner1"></feColorMatrix>
        </filter>
        <mask id="mask-4" maskContentUnits="userSpaceOnUse" maskUnits="objectBoundingBox" x="0" y="0" width="63" height="20" fill="white">
            <use xlink:href="#path-2"></use>
        </mask>
    </defs>
    <g id="Badges" stroke="none" stroke-width="1" fill="none" fill-rule="evenodd">
        <g id="Branded-Social-Media-Badges" transform="translate(-170.000000, -382.000000)">
            <g id="Badges" transform="translate(30.000000, 213.000000)">
                <g id="Twitter-Badges">
                    <g id="Badges" transform="translate(0.000000, 48.000000)">
                        <g id="Default-Follow-Button" transform="translate(140.000000, 121.000000)">
                            <g id="background">
                                <use fill="url(#linearGradient-1)" fill-rule="evenodd" xlink:href="#path-2"></use>
                                <use fill="black" fill-opacity="1" filter="url(#filter-3)" xlink:href="#path-2"></use>
                                <use stroke="#CCCCCC" mask="url(#mask-4)" stroke-width="2" xlink:href="#path-2"></use>
                            </g>
                            <path d="M22.9248046,6.09375 L28.5375976,6.09375 L28.5375976,7.48486328 L24.5683593,7.48486328 L24.5683593,9.30566406 L28.043457,9.30566406 L28.043457,10.6806641 L24.5683593,10.6806641 L24.5683593,14 L22.9248046,14 L22.9248046,6.09375 Z M33.1782226,12.4423828 C33.4181327,12.1236963 33.5380859,11.6707386 33.5380859,11.0834961 C33.5380859,10.4962536 33.4181327,10.044191 33.1782226,9.72729492 C32.9383126,9.41039881 32.594566,9.25195312 32.1469726,9.25195312 C31.6993792,9.25195312 31.3547375,9.41039881 31.1130371,9.72729492 C30.8713366,10.044191 30.7504882,10.4962536 30.7504882,11.0834961 C30.7504882,11.6707386 30.8713366,12.1236963 31.1130371,12.4423828 C31.3547375,12.7610693 31.6993792,12.9204102 32.1469726,12.9204102 C32.594566,12.9204102 32.9383126,12.7610693 33.1782226,12.4423828 Z M34.402832,13.2883301 C33.9086889,13.8988475 33.1585336,14.2041016 32.1523437,14.2041016 C31.1461538,14.2041016 30.3959985,13.8988475 29.9018554,13.2883301 C29.4077123,12.6778127 29.1606445,11.9428754 29.1606445,11.0834961 C29.1606445,10.2384398 29.4077123,9.50618799 29.9018554,8.88671875 C30.3959985,8.26724951 31.1461538,7.95751953 32.1523437,7.95751953 C33.1585336,7.95751953 33.9086889,8.26724951 34.402832,8.88671875 C34.8969751,9.50618799 35.1440429,10.2384398 35.1440429,11.0834961 C35.1440429,11.9428754 34.8969751,12.6778127 34.402832,13.2883301 Z M37.8027344,14 L36.2719726,14 L36.2719726,6.08300781 L37.8027344,6.08300781 L37.8027344,14 Z M40.8588867,14 L39.328125,14 L39.328125,6.08300781 L40.8588867,6.08300781 L40.8588867,14 Z M46.0097656,12.4423828 C46.2496757,12.1236963 46.3696289,11.6707386 46.3696289,11.0834961 C46.3696289,10.4962536 46.2496757,10.044191 46.0097656,9.72729492 C45.7698556,9.41039881 45.426109,9.25195312 44.9785156,9.25195312 C44.5309223,9.25195312 44.1862805,9.41039881 43.9445801,9.72729492 C43.7028797,10.044191 43.5820313,10.4962536 43.5820313,11.0834961 C43.5820313,11.6707386 43.7028797,12.1236963 43.9445801,12.4423828 C44.1862805,12.7610693 44.5309223,12.9204102 44.9785156,12.9204102 C45.426109,12.9204102 45.7698556,12.7610693 46.0097656,12.4423828 Z M47.234375,13.2883301 C46.7402319,13.8988475 45.9900767,14.2041016 44.9838867,14.2041016 C43.9776968,14.2041016 43.2275415,13.8988475 42.7333985,13.2883301 C42.2392554,12.6778127 41.9921875,11.9428754 41.9921875,11.0834961 C41.9921875,10.2384398 42.2392554,9.50618799 42.7333985,8.88671875 C43.2275415,8.26724951 43.9776968,7.95751953 44.9838867,7.95751953 C45.9900767,7.95751953 46.7402319,8.26724951 47.234375,8.88671875 C47.7285181,9.50618799 47.975586,10.2384398 47.975586,11.0834961 C47.975586,11.9428754 47.7285181,12.6778127 47.234375,13.2883301 Z M51.8320313,8.14550781 L53.3842774,8.14550781 L54.2758789,12.3618164 L55.1889649,8.14550781 L56.7841797,8.14550781 L55.0869141,14 L53.5131836,14 L52.5947266,9.73535156 L51.6655274,14 L50.0756836,14 L48.4321289,8.14550781 L50.0756836,8.14550781 L50.9887696,12.3457031 L51.8320313,8.14550781 Z" id="Follow" fill="#333333"></path>
                            <path d="M17.23255,7.20337466 C17.8678,6.85970926 18.355825,6.31551597 18.585625,5.66703194 C17.99095,5.98531835 17.332375,6.21636871 16.63135,6.34089496 C16.07005,5.80116838 15.27025,5.464 14.3851,5.464 C12.6856,5.464 11.307625,6.70729995 11.307625,8.24086789 C11.307625,8.45851814 11.33485,8.67048349 11.38735,8.87371846 C8.8297,8.75792258 6.562075,7.65234597 5.0443,5.97225663 C4.7794,6.38238116 4.6276,6.85943855 4.6276,7.36837195 C4.6276,8.3318262 5.1709,9.1817856 5.99665,9.67975528 C5.4922,9.66534001 5.017675,9.54040769 4.602775,9.3324353 C4.602475,9.34400812 4.602475,9.35558094 4.602475,9.36735679 C4.602475,10.7127818 5.663275,11.8351424 7.0711,12.0902859 C6.812875,12.1537672 6.541,12.1877412 6.26035,12.1877412 C6.06205,12.1877412 5.869225,12.1702805 5.68135,12.137863 C6.072925,13.2410709 7.2094,14.0439946 8.5561,14.0663281 C7.502875,14.8111846 6.175975,15.2551478 4.7341,15.2551478 C4.4857,15.2551478 4.24075,15.2419507 4,15.216301 C5.361925,16.0042003 6.979525,16.464 8.717425,16.464 C14.3779,16.464 17.473375,12.2325436 17.473375,8.56287656 C17.473375,8.44247861 17.4703,8.32275744 17.464375,8.20364537 C18.065725,7.81206443 18.587425,7.32302815 19,6.76611153 C18.44815,6.98701029 17.854975,7.13630644 17.23255,7.20337466 Z" id="icon" fill="#1DADEB"></path>
                        </g>
                    </g>
                </g>
            </g>
        </g>
    </g>
</svg>
