<?xml version="1.0" encoding="UTF-8"?>
<svg width="195px" height="35px" viewBox="0 0 195 35" version="1.1" xmlns="http://www.w3.org/2000/svg" xmlns:xlink="http://www.w3.org/1999/xlink">
    <!-- Generator: Sketch 42 (36781) - http://www.bohemiancoding.com/sketch -->
    <title>sponsored</title>
    <desc>Created with Sketch.</desc>
    <defs>
        <linearGradient x1="50%" y1="0%" x2="38.8077187%" y2="245.788672%" id="linearGradient-1">
            <stop stop-color="#FBDA61" offset="0%"></stop>
            <stop stop-color="#F76B1C" offset="100%"></stop>
        </linearGradient>
        <path d="M26.6609607,13.3323833 C26.6609607,5.9730483 20.6951583,0.00702781085 13.3356052,0.00702781085 C5.97627026,0.00702781085 0.0102497702,5.9730483 0.0102497702,13.3323833 C0.0102497702,20.6917183 5.97627026,26.6579568 13.3356052,26.6579568 C20.6951583,26.6579568 26.6609607,20.6917183 26.6609607,13.3323833" id="path-2"></path>
        <filter x="-50%" y="-50%" width="200%" height="200%" filterUnits="objectBoundingBox" id="filter-3">
            <feOffset dx="0" dy="0" in="SourceAlpha" result="shadowOffsetOuter1"></feOffset>
            <feGaussianBlur stdDeviation="37" in="shadowOffsetOuter1" result="shadowBlurOuter1"></feGaussianBlur>
            <feColorMatrix values="0 0 0 0 0   0 0 0 0 0   0 0 0 0 0  0 0 0 0.422780797 0" type="matrix" in="shadowBlurOuter1"></feColorMatrix>
        </filter>
        <linearGradient x1="50%" y1="0%" x2="-8.15302762%" y2="123.210284%" id="linearGradient-4">
            <stop stop-color="#FBDA61" offset="0%"></stop>
            <stop stop-color="#FB8F52" offset="100%"></stop>
        </linearGradient>
    </defs>
    <g id="branding" stroke="none" stroke-width="1" fill="none" fill-rule="evenodd">
        <g id="sponsored" transform="translate(0, 0)">
            <path d="M8.01279616e-15,17.2661955 C9.60267257e-16,7.96387288 7.53963619,0.422850412 16.8366679,0.422850412 L178.163332,0.422850412 C187.461967,0.422850412 195,7.96182756 195,17.2661955 L195,17.2661955 C195,26.5685182 187.460364,34.1095406 178.163332,34.1095406 L16.8366679,34.1095406 C7.538033,34.1095406 1.50668757e-14,26.5705635 8.01279616e-15,17.2661955 L8.01279616e-15,17.2661955 Z" id="Rectangle-4" fill="#1D2D37"></path>
            <path d="M128.94019,21.6489759 C129.956299,21.6489759 130.732494,21.2679349 131.325224,20.7881056 L130.534917,19.5744196 C130.153876,19.9272353 129.631709,20.1530373 129.010753,20.1530373 C127.782955,20.1530373 126.809183,19.1933787 126.809183,17.9796927 C126.809183,16.7660067 127.754729,15.7781228 129.010753,15.7781228 C129.617596,15.7781228 130.111538,15.9756995 130.534917,16.3567405 L131.381675,15.1853924 C130.732494,14.6349999 129.871624,14.2821842 128.94019,14.2821842 C126.907972,14.2821842 125.270907,15.9333617 125.270907,17.9655801 C125.270907,19.9977984 126.907972,21.6489759 128.94019,21.6489759 Z M135.609483,20.1812626 C134.325234,20.1812626 133.365575,19.1651534 133.365575,17.9373548 C133.365575,16.6813309 134.339346,15.7216723 135.609483,15.7216723 C136.893732,15.7216723 137.853391,16.6813309 137.853391,17.9373548 C137.853391,19.1651534 136.921957,20.1812626 135.609483,20.1812626 Z M135.609483,21.6489759 C137.853391,21.6489759 139.391667,19.9272353 139.391667,17.9373548 C139.391667,15.9333617 137.79694,14.253959 135.609483,14.253959 C133.436138,14.253959 131.841411,15.9333617 131.841411,17.9373548 C131.841411,19.9413479 133.365575,21.6489759 135.609483,21.6489759 Z M140.613485,21.5078496 L142.151762,21.5078496 L142.151762,14.4091979 L140.613485,14.4091979 L140.613485,21.5078496 Z M141.38968,12.7156825 C141.897735,12.7156825 142.307001,12.2923037 142.307001,11.7983617 C142.307001,11.2761945 141.897735,10.8669283 141.38968,10.8669283 C140.867513,10.8669283 140.486472,11.2761945 140.486472,11.7983617 C140.486472,12.2923037 140.867513,12.7156825 141.38968,12.7156825 Z M148.891618,21.5078496 L150.429894,21.5078496 L150.429894,17.3446244 C150.429894,15.3970818 148.948068,14.3245221 147.325116,14.3245221 C146.450133,14.3245221 145.885628,14.6067747 145.462249,15.0160409 L145.462249,14.4091979 L143.923973,14.4091979 L143.923973,21.5078496 L145.462249,21.5078496 L145.462249,16.6813309 C145.857403,16.1168258 146.450133,15.7922354 147.113427,15.7922354 C148.04486,15.7922354 148.891618,16.4414163 148.891618,17.5563139 L148.891618,21.5078496 Z M155.673811,21.6207506 C157.804818,21.6207506 159.343095,19.9554606 159.343095,17.9655801 C159.343095,15.9615869 157.804818,14.3104095 155.673811,14.3104095 C154.869392,14.3104095 154.135535,14.6067747 153.585142,15.0301535 L153.585142,14.4091979 L152.060979,14.4091979 L152.060979,24.03401 L153.585142,24.03401 L153.585142,20.9010066 C154.149648,21.3384981 154.869392,21.6207506 155.673811,21.6207506 Z M155.589136,15.7498975 C156.873385,15.7498975 157.833043,16.7095562 157.833043,17.9655801 C157.833043,19.1933787 156.859272,20.1812626 155.589136,20.1812626 C154.70004,20.1812626 153.952071,19.673208 153.585142,18.9252387 L153.585142,16.9494709 C153.952071,16.2438395 154.685927,15.7498975 155.589136,15.7498975 Z M160.593138,21.5078496 L162.117302,21.5078496 L162.117302,16.6813309 C162.230203,16.1450511 162.69592,15.7640101 163.260425,15.7640101 C163.951944,15.7640101 164.41766,16.2579521 164.41766,16.9353582 L165.786585,16.9353582 L165.786585,16.6813309 C165.786585,15.3547439 164.841039,14.3527474 163.514452,14.3527474 C162.96406,14.3527474 162.48423,14.5644368 162.117302,14.9031398 L162.117302,14.4091979 L160.593138,14.4091979 L160.593138,21.5078496 Z M166.712038,21.5078496 L168.250315,21.5078496 L168.250315,14.4091979 L166.712038,14.4091979 L166.712038,21.5078496 Z M167.488233,12.7156825 C167.996288,12.7156825 168.405554,12.2923037 168.405554,11.7983617 C168.405554,11.2761945 167.996288,10.8669283 167.488233,10.8669283 C166.966066,10.8669283 166.585025,11.2761945 166.585025,11.7983617 C166.585025,12.2923037 166.966066,12.7156825 167.488233,12.7156825 Z M175.244198,21.5078496 L176.768362,21.5078496 L176.768362,10.5 L175.244198,10.5 L175.244198,15.0724914 C174.693805,14.6067747 173.988174,14.3104095 173.155529,14.3104095 C171.038635,14.3104095 169.486246,15.9756995 169.486246,17.9655801 C169.486246,19.9554606 171.024522,21.6207506 173.155529,21.6207506 C173.959949,21.6207506 174.679693,21.3384981 175.244198,20.9010066 L175.244198,21.5078496 Z M173.240205,20.1812626 C171.970068,20.1812626 170.996297,19.1933787 170.996297,17.9655801 C170.996297,16.7095562 171.955956,15.7498975 173.240205,15.7498975 C174.115188,15.7498975 174.863157,16.2579521 175.244198,17.0482593 L175.244198,18.9393514 C174.87727,19.6873206 174.115188,20.1812626 173.240205,20.1812626 Z M181.80059,21.6489759 C183.084839,21.6489759 183.903371,21.2679349 184.750129,20.4211773 L183.889259,19.5179691 C183.225965,20.0683616 182.689685,20.2941636 181.786477,20.2941636 C180.502228,20.2941636 179.500231,19.4332933 179.457893,18.2478326 L185.314634,18.2478326 C185.328747,18.0784811 185.314634,17.9091295 185.314634,17.7538906 C185.229958,15.7781228 183.719907,14.2821842 181.631238,14.2821842 C179.415556,14.2821842 178.004293,15.9333617 178.004293,17.9091295 C178.004293,19.8848974 179.415556,21.6489759 181.80059,21.6489759 Z M181.617125,15.580546 C182.760248,15.580546 183.508218,16.2579521 183.719907,17.1047098 L179.570794,17.1047098 C179.782484,16.2861774 180.346989,15.580546 181.617125,15.580546 Z" id="Shape" fill="url(#linearGradient-1)" fill-rule="nonzero"></path>
            <g id="Group-3" transform="translate(6.658422, 4.074205)">
                <g id="3">
                    <use fill="black" fill-opacity="1" filter="url(#filter-3)" xlink:href="#path-2"></use>
                    <use fill="#20313C" fill-rule="evenodd" xlink:href="#path-2"></use>
                </g>
                <path d="M23.1260985,19.9585326 C20.9993802,23.0919091 17.4080352,25.1508045 13.3356052,25.1508045 C6.80562932,25.1508045 1.51173206,19.8569072 1.51173206,13.3269313 C1.51173206,6.7965192 6.80562932,1.50284002 13.3356052,1.50284002 C16.6007023,1.50284002 19.5567796,2.82636885 21.6963646,4.96617194 L21.6056432,8.78061301 L23.1260985,19.9585326" id="2" fill="#20313C"></path>
                <path d="M22.8554609,19.774909 C20.7865339,22.8221439 17.295942,24.8236841 13.3356052,24.8236841 C10.1599211,24.8234661 7.28780468,23.5372289 5.20622901,21.4563075 C3.1250895,19.3747319 1.83907047,16.5026154 1.83885239,13.3269313 C1.83907047,10.1510291 3.1250895,7.27891263 5.20622901,5.19733697 C7.28780468,3.11619746 10.1599211,1.83017842 13.3356052,1.82996034 C16.5115074,1.83017842 19.3836239,3.11641554 21.4651996,5.19755505 L21.2778687,8.79893174 L22.8020313,20.0025848 L23.1260985,19.9585326 L22.8554609,19.774909 L23.1260985,19.9585326 L23.4501657,19.9144804 L21.9331997,8.76229427 L21.9277477,4.73478883 C19.7299353,2.53654024 16.6901151,1.17550161 13.3356052,1.17571969 C6.62484082,1.17593777 1.18482982,6.6157307 1.18461174,13.3269313 C1.18482982,20.0376957 6.62484082,25.4777067 13.3356052,25.4779248 C17.5199104,25.4779248 21.2124446,23.3616744 23.396736,20.1421561 L23.467176,20.038568 L23.4501657,19.9144804 L23.1260985,19.9585326 L22.8554609,19.774909 Z" id="Fill-104" fill="url(#linearGradient-4)"></path>
                <polyline id="Fill-105" fill="url(#linearGradient-4)" points="18.2585481 6.23496264 16.8632708 2.84686839 11.5357892 1.33906177 11.3576177 1.96865936 16.3793508 3.38988813 17.6535935 6.48422833 18.2585481 6.23496264"></polyline>
                <polyline id="Fill-106" fill="url(#linearGradient-4)" points="16.4674552 5.79749372 14.9138518 3.44113698 7.17418489 2.87478266 7.12642532 3.52727867 14.5450781 4.07008033 15.9211643 6.15754416 16.4674552 5.79749372"></polyline>
                <polyline id="Fill-107" fill="url(#linearGradient-4)" points="10.4739566 8.07730431 5.34274723 11.7608972 3.31852666 19.8665027 3.95335817 20.0250471 5.91935132 12.1523512 10.855597 8.6087658 10.4739566 8.07730431"></polyline>
                <polyline id="Fill-108" fill="url(#linearGradient-4)" points="19.2822166 6.86456022 18.4109861 2.52738087 17.7693941 2.65626628 18.6408427 6.99344563 19.2822166 6.86456022"></polyline>
                <polyline id="Fill-109" fill="url(#linearGradient-4)" points="20.8264426 7.53646537 21.1472386 5.20671442 20.8209906 3.80489478 20.1837602 3.95297125 20.4825301 5.23724565 20.1783082 7.44727056 20.8264426 7.53668345 20.8264426 7.53646537"></polyline>
                <polyline id="Fill-110" fill="url(#linearGradient-4)" points="12.2659218 9.29092071 8.40524771 18.4609757 8.56008466 24.3114137 9.21410723 24.2939673 9.06297764 18.5848453 12.8689136 9.54476609 12.2659218 9.29092071"></polyline>
                <polyline id="Fill-111" fill="url(#linearGradient-4)" points="10.9877536 8.74615633 7.02937962 14.5097984 5.77258333 22.4721252 6.41875502 22.5741867 7.6524348 14.7579737 11.527066 9.11667462 10.9877536 8.74615633"></polyline>
                <polyline id="Fill-112" fill="url(#linearGradient-4)" points="11.7340241 5.637859 8.84533359 5.11948233 3.84540846 7.36461816 1.3106621 12.2888695 1.89228204 12.5882936 4.32213181 7.86772922 8.92885831 5.79923836 11.6186597 6.28184988 11.7340241 5.637859"></polyline>
                <polyline id="Fill-113" fill="url(#linearGradient-4)" points="10.6929092 7.74407774 8.57098867 7.98287557 4.77770139 9.59427029 1.92150479 17.2750555 2.53474636 17.5031674 5.29280686 10.0864773 8.73912852 8.62228677 10.7659661 8.39417486 10.6929092 7.74407774"></polyline>
                <polyline id="Fill-114" fill="url(#linearGradient-4)" points="18.8214131 18.7246347 19.5637582 21.0801191 17.3951685 24.1450185 17.9292469 24.5229515 20.2853856 21.1930847 19.4453406 18.5281444 18.8214131 18.7246347"></polyline>
                <polyline id="Fill-115" fill="url(#linearGradient-4)" points="12.3186972 10.4864365 12.0061882 18.6958481 14.4508675 25.0160309 15.0610559 24.77985 12.6650086 18.5859357 12.9725017 10.5112976 12.3186972 10.4864365"></polyline>
                <polyline id="Fill-116" fill="url(#linearGradient-4)" points="19.9157396 7.17968614 19.8963305 3.33689464 19.2420898 3.34016584 19.261499 7.18295734 19.9157396 7.17968614"></polyline>
                <polyline id="Fill-117" fill="url(#linearGradient-4)" points="15.5877196 15.6597354 16.9925924 20.9946317 16.0552836 24.5550093 16.6879343 24.7216226 17.6690772 20.9946317 16.2203704 15.4931221 15.5877196 15.6597354"></polyline>
                <path d="M14.9022935,14.5769671 L12.6455994,10.498867 C12.3919722,10.0404624 12.4859647,9.46800185 12.8726209,9.11427574 L15.9543125,6.29842398 C16.290156,5.99158512 16.7773472,5.91547512 17.1908273,6.10542299 L20.9481314,7.82978326 C21.3247559,8.00272087 21.5768566,8.367351 21.6056432,8.78061301 C21.6318128,9.15789178 21.8466219,9.49591612 22.1739603,9.68499166 C23.9024641,10.6827087 25.041279,11.7369084 25.6316221,12.3590913 C25.9347536,12.6785788 26.0226399,13.1450524 25.8599521,13.5543889 L24.7468707,16.3560655 C24.6779573,16.5296573 24.6528781,16.7178606 24.67425,16.9032288 L24.7784923,17.8108786 C24.8133851,18.1168452 24.7226638,18.4234659 24.5266096,18.6609553 L23.8863261,19.4368847 C23.5975879,19.7869035 23.1276251,19.9306183 22.692555,19.8023872 L19.5886193,18.8873226 C19.4185167,18.8371641 19.2625894,18.7477512 19.1334859,18.6264986 L15.1177568,14.854147 C15.0320513,14.7734574 14.9592125,14.6799009 14.9022935,14.5769671" id="1" fill="#20313C"></path>
                <path d="M14.9022935,14.5769671 L15.1884148,14.4186408 L12.9319388,10.3405408 C12.8638977,10.2175436 12.8311857,10.0842965 12.8311857,9.95104953 C12.8314038,9.72991619 12.9214709,9.51292637 13.0933181,9.35590862 L16.1750097,6.54005686 C16.3265754,6.40157592 16.521103,6.32917329 16.7184656,6.32917329 C16.8323034,6.32917329 16.9465775,6.35316212 17.0543091,6.40266632 L20.8116132,8.1270266 C21.0796337,8.25002384 21.2588957,8.50932122 21.2791771,8.80329335 C21.3131977,9.29092071 21.5903776,9.72577267 22.0106182,9.96827787 C23.7064099,10.9470219 24.8214541,11.980504 25.3943508,12.5843681 C25.5378476,12.7354977 25.6133034,12.9326423 25.6133034,13.1345845 C25.6133034,13.2351195 25.5945485,13.3363087 25.5559483,13.4335725 L24.4428668,16.2354671 C24.3746077,16.4073143 24.3397149,16.5902836 24.3397149,16.7743433 C24.3397149,16.8297357 24.3429861,16.8853462 24.3493104,16.9405205 L24.4533347,17.8481703 C24.456824,17.8789196 24.4585686,17.9094509 24.4585686,17.9399821 C24.4585686,18.1262226 24.394235,18.3074473 24.2742908,18.4526887 L23.6340073,19.2288362 C23.4785161,19.4172575 23.2490957,19.5214998 23.0124787,19.5214998 C22.9368049,19.5214998 22.8602587,19.5108139 22.784803,19.4885697 L22.785021,19.4885697 L19.6810853,18.5735051 C19.5602689,18.5379581 19.449266,18.4742786 19.3574543,18.388137 L15.3417252,14.6155673 L15.3419432,14.6157854 C15.2806627,14.5582122 15.2289777,14.4916977 15.1884148,14.4186408 L14.9022935,14.5769671 L14.6161723,14.7355114 C14.6896653,14.8681042 14.7832217,14.9884845 14.8937884,15.0922906 L14.8996766,15.0979607 L18.9095175,18.8648603 C19.0759127,19.0212238 19.2769827,19.1365883 19.4963714,19.20114 L19.4961533,19.20114 L22.6112111,20.1194758 L22.600089,20.1162046 C22.735953,20.1563313 22.8750882,20.1757405 23.0124787,20.1757405 C23.4412244,20.1757405 23.8566672,19.9866649 24.1386449,19.6451513 L24.7789285,18.8692219 C24.9959183,18.6062172 25.1128093,18.2773522 25.1128093,17.9399821 C25.1128093,17.8845897 25.1097561,17.8291974 25.1034318,17.773805 L24.9991895,16.865937 C24.9957002,16.8354058 24.9939555,16.8048746 24.9939555,16.7743433 C24.9939555,16.672936 25.0131466,16.5717468 25.0508745,16.4768819 L26.1639559,13.6752054 C26.2335235,13.5003051 26.267544,13.3166815 26.267544,13.1345845 C26.2677621,12.7695182 26.1301535,12.4092497 25.8688934,12.1340325 C25.2611038,11.4933128 24.0987363,10.4181774 22.3375204,9.40148738 C22.1028661,9.26605957 21.95021,9.02464477 21.9318912,8.75793266 C21.8950357,8.22516269 21.5698781,7.75519983 21.0846496,7.53253993 L17.3271275,5.80796157 C17.1325999,5.71854868 16.9245514,5.67493264 16.7184656,5.67493264 C16.3614683,5.67493264 16.0081783,5.80621693 15.7336153,6.05700918 L12.6519238,8.87286094 C12.3411595,9.15701946 12.176727,9.55174465 12.1769451,9.95104953 C12.1769451,10.1918101 12.236699,10.4356238 12.3594782,10.6571933 L14.6161723,14.7352933 L14.9022935,14.5769671" id="Fill-119" fill="url(#linearGradient-4)"></path>
                <path d="M14.7385153,7.57397517 C14.7382972,6.37475206 13.7665318,5.40320469 12.5673086,5.40298661 C11.3683036,5.40320469 10.3965382,6.37475206 10.3963201,7.57397517 C10.3965382,8.77319828 11.3683036,9.74474564 12.5673086,9.74496372 L12.5673086,9.09072307 C12.1475042,9.09050499 11.7704435,8.92149283 11.4947901,8.64649367 C11.219791,8.37105836 11.0507788,7.99399767 11.0505607,7.57397517 C11.0507788,7.15395267 11.219791,6.77689198 11.4947901,6.50145666 C11.7704435,6.22645751 12.1475042,6.05744534 12.5673086,6.05722726 C12.9873311,6.05744534 13.3643918,6.22645751 13.6398271,6.50145666 C13.9148263,6.77689198 14.0840566,7.15395267 14.0840566,7.57397517 L14.7385153,7.57397517" id="Fill-120" fill="url(#linearGradient-4)"></path>
                <path d="M25.8584255,12.9125789 L23.0290528,12.9125789 C22.8792317,12.9125789 22.8063929,13.0931493 22.912598,13.198482 C23.04868,13.3332556 23.2909671,13.5051028 23.722766,13.6911252 C24.405139,13.9848793 24.897346,14.3682643 25.1374523,14.5782756 C25.2214132,14.6517686 25.3520433,14.6216735 25.3974039,14.5198301 L26.0104274,13.1470151 C26.0594955,13.0368846 25.9788058,12.9125789 25.8584255,12.9125789" id="Fill-121" fill="url(#linearGradient-4)"></path>
                <path d="M24.6419741,16.6205968 C24.11422,16.8465279 23.5753437,17.0052903 23.0340686,17.148569 C22.7629949,17.2187908 22.4908308,17.2811618 22.2177944,17.3385169 L21.8075855,17.4202969 L21.6017178,17.4571525 C21.5238631,17.4706735 21.4375034,17.4813594 21.3550691,17.485721 C21.0211882,17.499242 20.6803289,17.4235682 20.3859206,17.251939 C20.0921665,17.0776929 19.8562037,16.8164328 19.7297172,16.4993442 C19.5962521,16.1785482 19.625911,15.8187158 19.7353873,15.5330308 C19.856858,15.2475638 20.0335029,15.0100744 20.2509289,14.8212169 C20.1530109,15.0912002 20.0673054,15.3552954 20.047242,15.6102312 C20.0245617,15.8640765 20.0769009,16.0934969 20.1933557,16.2762481 C20.4328078,16.6578885 20.879218,16.8541607 21.3258463,16.8323527 C21.3825472,16.8299538 21.4348864,16.824938 21.4946404,16.8159967 L21.7013804,16.7839389 L22.1159509,16.7281103 C22.3929128,16.6936537 22.670747,16.6644309 22.9496716,16.642841 C23.508175,16.6024961 24.0695135,16.5778531 24.6419741,16.6205968" id="Fill-122" fill="url(#linearGradient-4)"></path>
                <path d="M17.0335915,9.71334209 C17.0335915,9.71334209 17.505299,9.77702152 18.0648928,9.36288718 C18.6244867,8.94875285 19.4357451,9.6581678 19.4357451,9.6581678 C19.4357451,9.6581678 18.581961,10.8264235 17.0335915,9.71334209" id="Fill-123" fill="url(#linearGradient-4)"></path>
                <path d="M19.9600099,9.98725085 C19.6821757,9.9580281 19.4425056,9.88562546 19.212649,9.80820699 C18.9871541,9.73100659 18.7642761,9.63439705 18.5834876,9.57398883 C18.3965928,9.5148891 18.1615024,9.45666168 17.9338266,9.38011552 C17.7035339,9.30182472 17.4693158,9.21132143 17.2326987,9.06171841 C17.4852356,8.9393754 17.7397352,8.88965311 17.9957614,8.86937165 C18.2533141,8.85476028 18.5062872,8.86435581 18.7873926,8.95246022 C19.0708969,9.05081439 19.2772007,9.19780046 19.4741272,9.36724879 C19.6656016,9.53996832 19.8365765,9.73558628 19.9600099,9.98725085" id="Fill-124" fill="url(#linearGradient-4)"></path>
            </g>
            <path d="M41.180212,18.9717314 C41.1990578,19.3109558 41.2744399,19.6101283 41.4063604,19.869258 C41.538281,20.1283876 41.7102463,20.3498224 41.9222615,20.5335689 C42.1342767,20.7173154 42.381624,20.8563011 42.6643109,20.95053 C42.9469979,21.044759 43.2532374,21.0918728 43.5830389,21.0918728 C43.8186113,21.0918728 44.07067,21.0706716 44.3392226,21.0282686 C44.6077752,20.9858655 44.8574782,20.9081278 45.0883392,20.795053 C45.3192002,20.6819782 45.510011,20.5241471 45.6607774,20.3215548 C45.8115437,20.1189625 45.8869258,19.8621924 45.8869258,19.5512367 C45.8869258,19.1460522 45.76443,18.8398126 45.5194346,18.6325088 C45.2744393,18.4252051 44.965844,18.2650182 44.5936396,18.1519435 C44.2214351,18.0388687 43.820968,17.9469968 43.3922261,17.8763251 C42.9634843,17.8056534 42.5630172,17.6996473 42.1908127,17.5583039 C41.8186083,17.4169604 41.510013,17.2167269 41.2650177,16.9575972 C41.0200223,16.6984675 40.8975265,16.3192016 40.8975265,15.819788 C40.8975265,15.4617179 40.9776199,15.1625454 41.1378092,14.9222615 C41.2979984,14.6819776 41.5029434,14.4911668 41.7526502,14.3498233 C42.002357,14.2084799 42.282684,14.1071852 42.5936396,14.0459364 C42.9045952,13.9846876 43.2155461,13.9540636 43.5265018,13.9540636 C43.9034177,13.9540636 44.256771,13.996466 44.5865724,14.0812721 C44.9163738,14.1660782 45.2014122,14.3027081 45.4416961,14.4911661 C45.68198,14.679624 45.8704351,14.9199043 46.0070671,15.2120141 C46.1436991,15.504124 46.2120141,15.8574773 46.2120141,16.2720848 L45.6749117,16.2720848 C45.6749117,15.9422834 45.6207308,15.6596007 45.5123675,15.4240283 C45.4040042,15.1884558 45.2532401,14.997645 45.0600707,14.8515901 C44.8669013,14.7055352 44.6383994,14.5971735 44.3745583,14.5265018 C44.1107172,14.45583 43.8280345,14.4204947 43.5265018,14.4204947 C43.2815064,14.4204947 43.0341591,14.4440516 42.7844523,14.4911661 C42.5347455,14.5382806 42.310955,14.618374 42.1130742,14.7314488 C41.9151933,14.8445235 41.7526508,14.9905763 41.6254417,15.1696113 C41.4982326,15.3486464 41.434629,15.5653698 41.434629,15.819788 C41.434629,16.1118978 41.5052996,16.3474667 41.6466431,16.5265018 C41.7879866,16.7055368 41.974086,16.8492339 42.204947,16.9575972 C42.435808,17.0659605 42.6949338,17.153121 42.9823321,17.2190813 C43.2697305,17.2850416 43.5594803,17.3510008 43.8515901,17.4169611 C44.2096602,17.4829214 44.5465237,17.5606592 44.8621908,17.6501767 C45.1778579,17.7396942 45.4511178,17.86219 45.6819788,18.0176678 C45.9128398,18.1731457 46.0942278,18.3733792 46.2261484,18.6183746 C46.358069,18.8633699 46.4240283,19.1743208 46.4240283,19.5512367 C46.4240283,19.9469984 46.3345121,20.2720835 46.155477,20.5265018 C45.976442,20.78092 45.7502958,20.9858649 45.4770318,21.1413428 C45.2037678,21.2968206 44.8998839,21.4051823 44.565371,21.4664311 C44.2308582,21.5276799 43.9034174,21.5583039 43.5830389,21.5583039 C43.1684314,21.5583039 42.7844541,21.504123 42.4310954,21.3957597 C42.0777367,21.2873964 41.7691415,21.1224982 41.5053003,20.9010601 C41.2414592,20.679622 41.0341586,20.4087177 40.8833922,20.0883392 C40.7326259,19.7679607 40.6525324,19.3957618 40.6431095,18.9717314 L41.180212,18.9717314 Z M48.3886926,15.7915194 L48.4169611,15.7915194 C48.4734985,15.6124844 48.5677261,15.4146065 48.6996466,15.1978799 C48.8315672,14.9811532 49.0058882,14.7809196 49.2226148,14.5971731 C49.4393415,14.4134266 49.700823,14.2603069 50.0070671,14.1378092 C50.3133113,14.0153115 50.664309,13.9540636 51.0600707,13.9540636 C51.6160216,13.9540636 52.0989379,14.0577139 52.5088339,14.2650177 C52.91873,14.4723214 53.2579492,14.7502927 53.5265018,15.0989399 C53.7950543,15.4475871 53.9952879,15.8527657 54.1272085,16.3144876 C54.259129,16.7762096 54.3250883,17.2614816 54.3250883,17.770318 C54.3250883,18.326269 54.259129,18.8350978 54.1272085,19.2968198 C53.9952879,19.7585418 53.7950543,20.1566532 53.5265018,20.4911661 C53.2579492,20.8256789 52.91873,21.0871604 52.5088339,21.2756184 C52.0989379,21.4640763 51.6160216,21.5583039 51.0600707,21.5583039 C50.4570052,21.5583039 49.9199081,21.4263853 49.4487632,21.1625442 C48.9776184,20.898703 48.6336878,20.4699676 48.4169611,19.8763251 L48.3886926,19.8763251 L48.3886926,23.9893993 L47.8515901,23.9893993 L47.8515901,14.1236749 L48.3886926,14.1236749 L48.3886926,15.7915194 Z M51.0600707,21.0918728 C51.5312155,21.0918728 51.9387497,21.0023566 52.2826855,20.8233216 C52.6266213,20.6442865 52.909304,20.4040062 53.130742,20.1024735 C53.3521801,19.8009408 53.5170784,19.4499431 53.6254417,19.04947 C53.733805,18.6489968 53.7879859,18.2226171 53.7879859,17.770318 C53.7879859,17.3557105 53.7361607,16.9481763 53.6325088,16.5477032 C53.528857,16.14723 53.3686701,15.7891653 53.1519435,15.4734982 C52.9352168,15.1578312 52.6548898,14.9034167 52.3109541,14.7102473 C51.9670183,14.517078 51.5500613,14.4204947 51.0600707,14.4204947 C50.5795029,14.4204947 50.169613,14.5147223 49.8303887,14.7031802 C49.4911644,14.8916382 49.2155488,15.1413412 49.0035336,15.4522968 C48.7915184,15.7632524 48.6383986,16.1189615 48.5441696,16.5194346 C48.4499406,16.9199078 48.4028268,17.3368647 48.4028268,17.770318 C48.4028268,18.2037713 48.4452293,18.6207283 48.5300353,19.0212014 C48.6148414,19.4216746 48.7585384,19.7750279 48.9611307,20.0812721 C49.163723,20.3875163 49.436983,20.6325079 49.7809187,20.8162544 C50.1248545,21.0000009 50.5512342,21.0918728 51.0600707,21.0918728 Z M55.2438162,17.7561837 C55.2438162,17.2379244 55.3168426,16.7502967 55.4628975,16.2932862 C55.6089524,15.8362757 55.8233201,15.4334529 56.1060071,15.0848057 C56.388694,14.7361584 56.737336,14.4605428 57.1519435,14.2579505 C57.5665509,14.0553582 58.0424001,13.9540636 58.5795053,13.9540636 C59.1166105,13.9540636 59.5924596,14.0553582 60.0070671,14.2579505 C60.4216746,14.4605428 60.7703166,14.7361584 61.0530035,15.0848057 C61.3356905,15.4334529 61.5500582,15.8362757 61.6961131,16.2932862 C61.842168,16.7502967 61.9151943,17.2379244 61.9151943,17.7561837 C61.9151943,18.2744431 61.842168,18.7644264 61.6961131,19.2261484 C61.5500582,19.6878704 61.3356905,20.0906932 61.0530035,20.434629 C60.7703166,20.7785647 60.4216746,21.0518247 60.0070671,21.254417 C59.5924596,21.4570093 59.1166105,21.5583039 58.5795053,21.5583039 C58.0424001,21.5583039 57.5665509,21.4570093 57.1519435,21.254417 C56.737336,21.0518247 56.388694,20.7785647 56.1060071,20.434629 C55.8233201,20.0906932 55.6089524,19.6878704 55.4628975,19.2261484 C55.3168426,18.7644264 55.2438162,18.2744431 55.2438162,17.7561837 Z M55.7809187,17.7561837 C55.7809187,18.189637 55.8421666,18.606594 55.9646643,19.0070671 C56.087162,19.4075403 56.2661943,19.7632493 56.5017668,20.0742049 C56.7373392,20.3851606 57.0294447,20.6325079 57.3780919,20.8162544 C57.7267391,21.0000009 58.1272062,21.0918728 58.5795053,21.0918728 C59.0318044,21.0918728 59.4322715,21.0000009 59.7809187,20.8162544 C60.1295659,20.6325079 60.4216714,20.3851606 60.6572438,20.0742049 C60.8928162,19.7632493 61.0718486,19.4075403 61.1943463,19.0070671 C61.316844,18.606594 61.3780919,18.189637 61.3780919,17.7561837 C61.3780919,17.3227305 61.316844,16.9057735 61.1943463,16.5053004 C61.0718486,16.1048272 60.8928162,15.7491182 60.6572438,15.4381625 C60.4216714,15.1272069 60.1295659,14.8798596 59.7809187,14.6961131 C59.4322715,14.5123666 59.0318044,14.4204947 58.5795053,14.4204947 C58.1272062,14.4204947 57.7267391,14.5123666 57.3780919,14.6961131 C57.0294447,14.8798596 56.7373392,15.1272069 56.5017668,15.4381625 C56.2661943,15.7491182 56.087162,16.1048272 55.9646643,16.5053004 C55.8421666,16.9057735 55.7809187,17.3227305 55.7809187,17.7561837 Z M63.1731449,14.1236749 L63.7102473,14.1236749 L63.7102473,15.6784452 L63.7385159,15.6784452 C63.8327449,15.4051812 63.9670191,15.1625452 64.1413428,14.95053 C64.3156664,14.7385148 64.5182556,14.5571268 64.7491166,14.4063604 C64.9799776,14.2555941 65.2320363,14.142521 65.5053003,14.0671378 C65.7785644,13.9917546 66.0565357,13.9540636 66.3392226,13.9540636 C66.763253,13.9540636 67.1236734,14.0058888 67.4204947,14.1095406 C67.717316,14.2131925 67.9599519,14.3498225 68.1484099,14.5194346 C68.3368678,14.6890468 68.4852763,14.8798576 68.5936396,15.0918728 C68.7020029,15.303888 68.7797406,15.5182557 68.8268551,15.7349823 C68.8739696,15.951709 68.9022379,16.1613653 68.9116608,16.3639576 C68.9210837,16.5665499 68.925795,16.7432266 68.925795,16.8939929 L68.925795,21.3886926 L68.3886926,21.3886926 L68.3886926,16.795053 C68.3886926,16.616018 68.3745584,16.3898718 68.3462897,16.1166078 C68.3180211,15.8433437 68.2355719,15.5818623 68.0989399,15.3321555 C67.9623079,15.0824487 67.7550073,14.868081 67.4770318,14.6890459 C67.1990563,14.5100109 66.815079,14.4204947 66.3250883,14.4204947 C65.9104808,14.4204947 65.5429934,14.4958767 65.2226148,14.6466431 C64.9022363,14.7974095 64.6289764,15.0070658 64.4028269,15.2756184 C64.1766773,15.544171 64.004712,15.8645447 63.8869258,16.2367491 C63.7691396,16.6089536 63.7102473,17.0164878 63.7102473,17.459364 L63.7102473,21.3886926 L63.1731449,21.3886926 L63.1731449,14.1236749 Z M70.7632509,18.9717314 C70.7820967,19.3109558 70.8574787,19.6101283 70.9893993,19.869258 C71.1213199,20.1283876 71.2932852,20.3498224 71.5053004,20.5335689 C71.7173155,20.7173154 71.9646629,20.8563011 72.2473498,20.95053 C72.5300367,21.044759 72.8362763,21.0918728 73.1660777,21.0918728 C73.4016502,21.0918728 73.6537089,21.0706716 73.9222615,21.0282686 C74.1908141,20.9858655 74.4405171,20.9081278 74.6713781,20.795053 C74.9022391,20.6819782 75.0930499,20.5241471 75.2438163,20.3215548 C75.3945826,20.1189625 75.4699647,19.8621924 75.4699647,19.5512367 C75.4699647,19.1460522 75.3474688,18.8398126 75.1024735,18.6325088 C74.8574782,18.4252051 74.5488829,18.2650182 74.1766784,18.1519435 C73.804474,18.0388687 73.4040069,17.9469968 72.975265,17.8763251 C72.5465232,17.8056534 72.146056,17.6996473 71.7738516,17.5583039 C71.4016471,17.4169604 71.0930519,17.2167269 70.8480565,16.9575972 C70.6030612,16.6984675 70.4805654,16.3192016 70.4805654,15.819788 C70.4805654,15.4617179 70.5606588,15.1625454 70.7208481,14.9222615 C70.8810373,14.6819776 71.0859823,14.4911668 71.335689,14.3498233 C71.5853958,14.2084799 71.8657228,14.1071852 72.1766784,14.0459364 C72.4876341,13.9846876 72.798585,13.9540636 73.1095406,13.9540636 C73.4864565,13.9540636 73.8398099,13.996466 74.1696113,14.0812721 C74.4994127,14.1660782 74.7844511,14.3027081 75.024735,14.4911661 C75.2650189,14.679624 75.453474,14.9199043 75.590106,15.2120141 C75.726738,15.504124 75.795053,15.8574773 75.795053,16.2720848 L75.2579505,16.2720848 C75.2579505,15.9422834 75.2037697,15.6596007 75.0954064,15.4240283 C74.987043,15.1884558 74.8362789,14.997645 74.6431095,14.8515901 C74.4499401,14.7055352 74.2214383,14.5971735 73.9575972,14.5265018 C73.693756,14.45583 73.4110734,14.4204947 73.1095406,14.4204947 C72.8645453,14.4204947 72.6171979,14.4440516 72.3674912,14.4911661 C72.1177844,14.5382806 71.8939939,14.618374 71.6961131,14.7314488 C71.4982322,14.8445235 71.3356897,14.9905763 71.2084806,15.1696113 C71.0812714,15.3486464 71.0176678,15.5653698 71.0176678,15.819788 C71.0176678,16.1118978 71.0883385,16.3474667 71.229682,16.5265018 C71.3710254,16.7055368 71.5571249,16.8492339 71.7879859,16.9575972 C72.0188469,17.0659605 72.2779726,17.153121 72.565371,17.2190813 C72.8527694,17.2850416 73.1425191,17.3510008 73.434629,17.4169611 C73.7926991,17.4829214 74.1295626,17.5606592 74.4452297,17.6501767 C74.7608967,17.7396942 75.0341567,17.86219 75.2650177,18.0176678 C75.4958787,18.1731457 75.6772667,18.3733792 75.8091873,18.6183746 C75.9411078,18.8633699 76.0070671,19.1743208 76.0070671,19.5512367 C76.0070671,19.9469984 75.917551,20.2720835 75.7385159,20.5265018 C75.5594808,20.78092 75.3333347,20.9858649 75.0600707,21.1413428 C74.7868066,21.2968206 74.4829228,21.4051823 74.1484099,21.4664311 C73.813897,21.5276799 73.4864563,21.5583039 73.1660777,21.5583039 C72.7514702,21.5583039 72.3674929,21.504123 72.0141343,21.3957597 C71.6607756,21.2873964 71.3521804,21.1224982 71.0883392,20.9010601 C70.8244981,20.679622 70.6171975,20.4087177 70.4664311,20.0883392 C70.3156647,19.7679607 70.2355713,19.3957618 70.2261484,18.9717314 L70.7632509,18.9717314 Z M76.9681979,17.7561837 C76.9681979,17.2379244 77.0412242,16.7502967 77.1872792,16.2932862 C77.3333341,15.8362757 77.5477018,15.4334529 77.8303887,15.0848057 C78.1130756,14.7361584 78.4617176,14.4605428 78.8763251,14.2579505 C79.2909326,14.0553582 79.7667818,13.9540636 80.3038869,13.9540636 C80.8409921,13.9540636 81.3168413,14.0553582 81.7314488,14.2579505 C82.1460563,14.4605428 82.4946982,14.7361584 82.7773852,15.0848057 C83.0600721,15.4334529 83.2744398,15.8362757 83.4204947,16.2932862 C83.5665496,16.7502967 83.639576,17.2379244 83.639576,17.7561837 C83.639576,18.2744431 83.5665496,18.7644264 83.4204947,19.2261484 C83.2744398,19.6878704 83.0600721,20.0906932 82.7773852,20.434629 C82.4946982,20.7785647 82.1460563,21.0518247 81.7314488,21.254417 C81.3168413,21.4570093 80.8409921,21.5583039 80.3038869,21.5583039 C79.7667818,21.5583039 79.2909326,21.4570093 78.8763251,21.254417 C78.4617176,21.0518247 78.1130756,20.7785647 77.8303887,20.434629 C77.5477018,20.0906932 77.3333341,19.6878704 77.1872792,19.2261484 C77.0412242,18.7644264 76.9681979,18.2744431 76.9681979,17.7561837 Z M77.5053004,17.7561837 C77.5053004,18.189637 77.5665483,18.606594 77.6890459,19.0070671 C77.8115436,19.4075403 77.990576,19.7632493 78.2261484,20.0742049 C78.4617208,20.3851606 78.7538263,20.6325079 79.1024735,20.8162544 C79.4511207,21.0000009 79.8515878,21.0918728 80.3038869,21.0918728 C80.756186,21.0918728 81.1566531,21.0000009 81.5053004,20.8162544 C81.8539476,20.6325079 82.146053,20.3851606 82.3816254,20.0742049 C82.6171979,19.7632493 82.7962302,19.4075403 82.9187279,19.0070671 C83.0412256,18.606594 83.1024735,18.189637 83.1024735,17.7561837 C83.1024735,17.3227305 83.0412256,16.9057735 82.9187279,16.5053004 C82.7962302,16.1048272 82.6171979,15.7491182 82.3816254,15.4381625 C82.146053,15.1272069 81.8539476,14.8798596 81.5053004,14.6961131 C81.1566531,14.5123666 80.756186,14.4204947 80.3038869,14.4204947 C79.8515878,14.4204947 79.4511207,14.5123666 79.1024735,14.6961131 C78.7538263,14.8798596 78.4617208,15.1272069 78.2261484,15.4381625 C77.990576,15.7491182 77.8115436,16.1048272 77.6890459,16.5053004 C77.5665483,16.9057735 77.5053004,17.3227305 77.5053004,17.7561837 Z M85.434629,15.7349823 L85.4770318,15.7349823 C85.5429921,15.4994099 85.6631322,15.2779751 85.8374558,15.0706714 C86.0117794,14.8633676 86.2237914,14.6843353 86.4734982,14.5335689 C86.723205,14.3828025 87.0011763,14.2673738 87.3074205,14.1872792 C87.6136647,14.1071845 87.9316827,14.0718492 88.2614841,14.0812721 L88.2614841,14.6183746 C87.9787972,14.580683 87.6560678,14.6089512 87.2932862,14.7031802 C86.9305047,14.7974092 86.5842184,15.0047098 86.254417,15.3250883 C86.1224964,15.4664318 86.0070676,15.6030618 85.9081272,15.7349823 C85.8091868,15.8669029 85.7267377,16.0129556 85.6607774,16.1731449 C85.5948171,16.3333341 85.5429919,16.5123665 85.5053004,16.7102473 C85.4676088,16.9081282 85.4440519,17.1436971 85.434629,17.4169611 L85.434629,21.3886926 L84.8975265,21.3886926 L84.8975265,14.1236749 L85.434629,14.1236749 L85.434629,15.7349823 Z M88.869258,17.8268551 L88.869258,17.9116608 C88.869258,18.3356912 88.9257945,18.7408697 89.0388693,19.1272085 C89.151944,19.5135473 89.319198,19.8527665 89.540636,20.1448763 C89.7620741,20.4369861 90.0400454,20.6678437 90.3745583,20.8374558 C90.7090712,21.007068 91.0977599,21.0918728 91.540636,21.0918728 C92.2661992,21.0918728 92.8409873,20.901062 93.2650177,20.5194346 C93.6890481,20.1378073 93.9811535,19.6077772 94.1413428,18.9293286 L94.6784452,18.9293286 C94.518256,19.7773894 94.1719697,20.4275596 93.639576,20.8798587 C93.1071823,21.3321577 92.4028312,21.5583039 91.5265018,21.5583039 C90.9893966,21.5583039 90.5206145,21.4617206 90.1201413,21.2685512 C89.7196682,21.0753818 89.3851604,20.8115447 89.1166078,20.4770318 C88.8480552,20.1425189 88.6478216,19.7467632 88.5159011,19.2897527 C88.3839805,18.8327421 88.3180212,18.3404031 88.3180212,17.8127208 C88.3180212,17.3038844 88.3863362,16.8162567 88.5229682,16.3498233 C88.6596002,15.8833899 88.8645452,15.4735 89.1378092,15.1201413 C89.4110732,14.7667827 89.7526481,14.4841 90.1625442,14.2720848 C90.5724402,14.0600696 91.0553565,13.9540636 91.6113074,13.9540636 C92.1201439,13.9540636 92.5700805,14.0482912 92.9611307,14.2367491 C93.352181,14.4252071 93.6796218,14.6819772 93.9434629,15.0070671 C94.207304,15.3321571 94.4075376,15.7090673 94.5441696,16.1378092 C94.6808016,16.566551 94.7491166,17.0259104 94.7491166,17.5159011 C94.7491166,17.5630155 94.7467609,17.6171964 94.7420495,17.6784452 C94.737338,17.7396941 94.7349823,17.7891635 94.7349823,17.8268551 L88.869258,17.8268551 Z M94.1978799,17.360424 C94.1790341,16.9646623 94.1130748,16.5901078 94,16.2367491 C93.8869252,15.8833905 93.7196713,15.5724395 93.4982332,15.3038869 C93.2767951,15.0353343 93.0082466,14.8209666 92.6925795,14.6607774 C92.3769124,14.5005881 92.016492,14.4204947 91.6113074,14.4204947 C91.1778541,14.4204947 90.7962325,14.5029438 90.4664311,14.6678445 C90.1366297,14.8327452 89.8586584,15.0494686 89.6325088,15.3180212 C89.4063593,15.5865738 89.2320383,15.8998804 89.1095406,16.2579505 C88.987043,16.6160206 88.9116609,16.9835081 88.8833922,17.360424 L94.1978799,17.360424 Z M101.60424,19.8339223 L101.575972,19.8339223 C101.274439,20.408719 100.897529,20.8398101 100.44523,21.1272085 C99.9929306,21.4146069 99.4416994,21.5583039 98.7915194,21.5583039 C98.2449914,21.5583039 97.7738536,21.4546536 97.3780919,21.2473498 C96.9823302,21.0400461 96.6572451,20.7620748 96.4028269,20.4134276 C96.1484086,20.0647804 95.9599535,19.6619575 95.8374558,19.204947 C95.7149582,18.7479365 95.6537102,18.2697316 95.6537102,17.770318 C95.6537102,17.2332129 95.7196695,16.7314511 95.8515901,16.2650177 C95.9835107,15.7985842 96.1837442,15.3957614 96.4522968,15.0565371 C96.7208494,14.7173128 97.0577129,14.4487642 97.4628975,14.2508834 C97.8680821,14.0530025 98.3439313,13.9540636 98.8904594,13.9540636 C99.1825692,13.9540636 99.4699633,13.9941103 99.7526502,14.0742049 C100.035337,14.1542996 100.296819,14.2697283 100.537102,14.4204947 C100.777386,14.5712611 100.987043,14.7597162 101.166078,14.9858657 C101.345113,15.2120153 101.481743,15.4664297 101.575972,15.7491166 L101.60424,15.7491166 L101.60424,11.2968198 L102.141343,11.2968198 L102.141343,21.3886926 L101.60424,21.3886926 L101.60424,19.8339223 Z M98.9045936,21.0918728 C99.3663156,21.0918728 99.7644271,20.9976452 100.09894,20.8091873 C100.433453,20.6207293 100.711424,20.3710263 100.932862,20.0600707 C101.1543,19.7491151 101.319199,19.393406 101.427562,18.9929329 C101.535925,18.5924597 101.590106,18.1849255 101.590106,17.770318 C101.590106,17.3462876 101.535925,16.934042 101.427562,16.5335689 C101.319199,16.1330958 101.156656,15.775031 100.939929,15.459364 C100.723203,15.1436969 100.442876,14.8916382 100.09894,14.7031802 C99.7550042,14.5147223 99.3521813,14.4204947 98.8904594,14.4204947 C98.4098916,14.4204947 98.0000017,14.5123666 97.6607774,14.6961131 C97.3215531,14.8798596 97.0412261,15.1272069 96.819788,15.4381625 C96.5983499,15.7491182 96.438163,16.1071829 96.3392226,16.5123675 C96.2402822,16.9175521 96.1908127,17.3368647 96.1908127,17.770318 C96.1908127,18.1943484 96.2449936,18.606594 96.3533569,19.0070671 C96.4617202,19.4075403 96.6266184,19.7632493 96.8480565,20.0742049 C97.0694946,20.3851606 97.3498216,20.6325079 97.6890459,20.8162544 C98.0282702,21.0000009 98.4334488,21.0918728 98.9045936,21.0918728 Z M107.908127,11.2968198 L108.44523,11.2968198 L108.44523,15.664311 L108.473498,15.664311 C108.57715,15.381624 108.723203,15.1342767 108.911661,14.9222615 C109.100119,14.7102463 109.316842,14.5312139 109.561837,14.385159 C109.806833,14.2391041 110.07067,14.1307424 110.353357,14.0600707 C110.636044,13.9893989 110.928149,13.9540636 111.229682,13.9540636 C111.766787,13.9540636 112.230858,14.0482912 112.621908,14.2367491 C113.012958,14.4252071 113.340399,14.6843329 113.60424,15.0141343 C113.868081,15.3439357 114.063604,15.727913 114.190813,16.1660777 C114.318022,16.6042425 114.381625,17.077736 114.381625,17.5865724 C114.381625,18.453479 114.263841,19.1484073 114.028269,19.6713781 C113.792696,20.1943489 113.510013,20.594816 113.180212,20.8727915 C112.850411,21.150767 112.50648,21.3345107 112.14841,21.4240283 C111.79034,21.5135458 111.4841,21.5583039 111.229682,21.5583039 C110.749114,21.5583039 110.34158,21.4829218 110.007067,21.3321555 C109.672554,21.1813891 109.396939,21.0047124 109.180212,20.8021201 C108.963485,20.5995278 108.798587,20.3992943 108.685512,20.2014134 C108.572438,20.0035326 108.501767,19.8574799 108.473498,19.7632509 L108.44523,19.7632509 L108.44523,21.3886926 L107.908127,21.3886926 L107.908127,11.2968198 Z M111.229682,21.0918728 C111.71025,21.0918728 112.115428,20.9882225 112.44523,20.7809187 C112.775031,20.573615 113.04358,20.3027107 113.250883,19.9681979 C113.458187,19.633685 113.608951,19.2567748 113.70318,18.8374558 C113.797409,18.4181369 113.844523,18.0011799 113.844523,17.5865724 C113.844523,17.1813878 113.790342,16.7903435 113.681979,16.4134276 C113.573615,16.0365117 113.408717,15.6996481 113.187279,15.4028269 C112.965841,15.1060056 112.692581,14.868081 112.367491,14.6890459 C112.042401,14.5100109 111.663135,14.4204947 111.229682,14.4204947 C110.758537,14.4204947 110.348647,14.5005881 110,14.6607774 C109.651353,14.8209666 109.363959,15.0424014 109.137809,15.3250883 C108.91166,15.6077753 108.74205,15.9422831 108.628975,16.3286219 C108.5159,16.7149607 108.459364,17.1342734 108.459364,17.5865724 C108.459364,18.0294486 108.511189,18.4628954 108.614841,18.8869258 C108.718493,19.3109562 108.881035,19.6855107 109.102474,20.0106007 C109.323912,20.3356907 109.60895,20.5971722 109.957597,20.795053 C110.306244,20.9929339 110.730268,21.0918728 111.229682,21.0918728 Z M114.763251,14.1236749 L115.399293,14.1236749 L118.09894,20.7526502 L120.586572,14.1236749 L121.194346,14.1236749 L118.084806,22.1660777 C117.934039,22.5241478 117.795054,22.8327431 117.667845,23.0918728 C117.540635,23.3510025 117.396938,23.5418133 117.236749,23.664311 C117.048291,23.8150773 116.824501,23.9069492 116.565371,23.9399293 C116.306241,23.9729095 115.964666,23.9893993 115.540636,23.9893993 L115.540636,23.5229682 C115.926975,23.5229682 116.228503,23.4923442 116.44523,23.4310954 C116.661956,23.3698466 116.864546,23.2449951 117.053004,23.0565371 C117.156655,22.9528852 117.265017,22.7620744 117.378092,22.4840989 C117.491167,22.2061235 117.632508,21.8268575 117.80212,21.3462898 L114.763251,14.1236749 Z" id="sponsored-by" fill="#FFFFFF"></path>
        </g>
    </g>
</svg>
